<?xml version="1.0" encoding="UTF-8"?>
<!DOCTYPE svg PUBLIC "-//W3C//DTD SVG 1.1//EN" "http://www.w3.org/Graphics/SVG/1.1/DTD/svg11.dtd">
<!-- Creator: CorelDRAW 2020 (64-Bit) -->
<svg xmlns="http://www.w3.org/2000/svg" xml:space="preserve" width="35mm" height="30mm" version="1.1" style="shape-rendering:geometricPrecision; text-rendering:geometricPrecision; image-rendering:optimizeQuality; fill-rule:evenodd; clip-rule:evenodd"
viewBox="0 0 3500 3000"
 xmlns:xlink="http://www.w3.org/1999/xlink"
 xmlns:xodm="http://www.corel.com/coreldraw/odm/2003">
 <defs>
  <style type="text/css">
   <![CDATA[
    .fil0 {fill:black}
   ]]>
  </style>
 </defs>
 <g id="Слой_x0020_1">
  <metadata id="CorelCorpID_0Corel-Layer"/>
  <path class="fil0" d="M525.13 1065.29c0.88,12.94 -3.1,25.36 -11.85,35.21 -9.67,11.67 -23.74,17.63 -39.2,17.63l-258.72 0c-4.27,0 -17.01,0.29 -20.68,2.83l-0.24 0.24 0.03 -0.14c-2.43,3.71 -2.92,15.88 -2.92,20.11l0 115.01 119.9 0c60.29,0 130.32,8.89 178.02,48.08 43.92,36.09 58.7,88.65 58.7,142.91 0,51.47 -14.22,100.61 -53.31,136.84 -40.21,37.29 -94.47,49.32 -148.52,49.32l-148.3 0c-29.6,0 -58.99,-6.31 -82.41,-24.73 -23.78,-18.66 -34.79,-44.7 -34.79,-74.19l0 -411.51c0,-30.34 10.3,-57.82 33.41,-78.6 22.16,-19.97 50.06,-28.26 79.84,-28.26l276.82 0c14.01,0 27.06,4.59 37.57,13.62l0.71 0.63 0.67 0.64c9.59,9.35 14.88,21.2 15.27,34.36zm-146.58 -429.54c66.96,-1.8 112.5,-25.4 158.05,-49.01 50.83,-26.38 101.74,-52.77 180.16,-52.77 78.42,0 129.33,26.39 180.16,52.77 47.38,24.56 94.8,49.15 166.37,49.15 64.25,0 115.68,-24.87 166.94,-49.67 54.08,-26.07 107.91,-52.11 177.62,-52.11 69.96,-0.07 124.6,26.04 179.39,52.18 51.93,24.73 104.1,49.6 168.98,49.6 71.58,0 119.03,-24.59 166.37,-49.15 50.87,-26.38 101.74,-52.77 180.13,-52.77 78.42,0 129.36,26.39 180.2,52.77 47.38,24.56 94.79,49.15 166.33,49.15l0.21 0 0 -0.14c66.89,-1.84 112.4,-25.44 157.91,-49.01 50.83,-26.38 101.7,-52.77 180.16,-52.77 78.42,0 129.29,26.39 180.13,52.77 47.38,24.56 94.79,49.15 166.37,49.15l0.03 0 0 -67c-65.68,0 -109.71,-19.75 -166.4,-49.14 -50.84,-26.39 -101.71,-52.77 -180.13,-52.77 -78.46,0 -129.33,26.38 -180.16,52.77 -45.55,23.6 -91.09,47.2 -158.08,49l0 0.14 -0.04 0c-71.54,0 -118.95,-24.58 -166.33,-49.14 -50.84,-26.39 -101.78,-52.77 -180.2,-52.77 -78.39,0 -129.26,26.38 -180.13,52.77 -47.34,24.56 -94.79,49.14 -166.37,49.14 -64.88,0 -117.05,-24.87 -168.98,-49.6 -54.79,-26.17 -109.43,-52.24 -179.39,-52.17 -69.71,-0.04 -123.54,26 -177.62,52.1 -51.26,24.8 -102.69,49.67 -166.94,49.67 -71.57,0 -118.99,-24.58 -166.37,-49.14 -50.83,-26.39 -101.74,-52.77 -180.16,-52.77 -78.42,0 -129.33,26.38 -180.16,52.77 -45.55,23.6 -91.09,47.2 -158.05,49l0 67zm0 -223.24l0 67.03c66.96,-1.84 112.5,-25.44 158.05,-49.04 50.83,-26.39 101.74,-52.74 180.16,-52.74 78.42,0 129.33,26.35 180.16,52.74 47.38,24.55 94.8,49.14 166.37,49.14 64.25,0 115.68,-24.87 166.94,-49.63 54.08,-26.15 107.91,-52.11 177.62,-52.11 69.96,-0.07 124.6,25.96 179.39,52.14 51.93,24.73 104.1,49.6 168.98,49.6 71.58,0 119.03,-24.59 166.37,-49.14 50.87,-26.39 101.74,-52.74 180.13,-52.74 78.42,0 129.36,26.35 180.2,52.74 47.38,24.55 94.79,49.14 166.33,49.14l0.21 0 0 -0.1c66.89,-1.87 112.4,-25.47 157.91,-49.04 50.83,-26.39 101.7,-52.74 180.16,-52.74 78.42,0 129.29,26.35 180.13,52.74 47.38,24.55 94.79,49.14 166.37,49.14l0.03 0 0 -66.99c-65.68,0 -109.71,-19.79 -166.4,-49.14 -50.84,-26.39 -101.71,-52.78 -180.13,-52.78 -78.46,0 -129.33,26.39 -180.16,52.78 -45.55,23.6 -91.09,47.2 -158.08,49l0 0.14 -0.04 0c-71.54,0 -118.95,-24.59 -166.33,-49.14 -50.84,-26.39 -101.78,-52.78 -180.2,-52.78 -78.39,0 -129.26,26.39 -180.13,52.78 -47.34,24.55 -94.79,49.14 -166.37,49.14 -64.88,0 -117.05,-24.87 -168.98,-49.6 -54.79,-26.14 -109.43,-52.25 -179.39,-52.14 -69.71,-0.04 -123.54,26 -177.62,52.1 -51.26,24.77 -102.69,49.64 -166.94,49.64 -71.57,0 -118.99,-24.59 -166.37,-49.14 -50.83,-26.39 -101.74,-52.78 -180.16,-52.78 -78.42,0 -129.33,26.39 -180.16,52.78 -45.55,23.6 -91.09,47.2 -158.05,49zm146.58 1445.89c0.88,12.95 -3.1,25.37 -11.85,35.21 -9.67,11.71 -23.74,17.6 -39.2,17.6l-258.72 0c-4.27,0 -17.01,0.32 -20.68,2.86l-0.24 0.25 0.03 -0.14c-2.43,3.7 -2.92,15.87 -2.92,20.11l0 115 119.9 0c60.29,0 130.32,8.89 178.02,48.08 43.92,36.09 58.7,88.66 58.7,142.91 0,51.48 -14.22,100.62 -53.31,136.85 -40.21,37.29 -94.47,49.28 -148.52,49.28l-148.3 0c-29.6,0 -58.99,-6.28 -82.41,-24.69 -23.78,-18.67 -34.79,-44.7 -34.79,-74.19l0 -411.52c0,-30.34 10.3,-57.82 33.41,-78.56 22.16,-19.97 50.06,-28.29 79.84,-28.29l276.82 0c14.01,0 27.06,4.58 37.57,13.61l0.71 0.64 0.67 0.63c9.59,9.35 14.88,21.24 15.27,34.36zm568.68 383.05l-213.82 0 -64.24 160.48c-5.64,14.11 -15.52,25.5 -28.72,32.31 -13.23,7.16 -28.01,8.4 -42.96,3.78 -14.19,-4.73 -25.05,-14.29 -31.72,-27.31 -7.62,-14.89 -6.81,-31.01 -0.32,-46.07l200.56 -510.72c5.78,-16.37 15.38,-31.01 30.12,-41.91 13.45,-9.52 28.79,-14.25 45.41,-14.25 16.01,0 30.83,5.12 43.74,14.36 14.54,10.48 24.03,25.15 29.74,40.89l202.11 512.83 0.21 0.77c4.76,14.4 4.41,29.36 -2.08,43.18 -6.25,13.3 -17.29,22.69 -31.47,27.38 -13.62,4.52 -27.55,3.92 -40.78,-1.55l-1.66 -0.67 -1.55 -0.88c-12.88,-7.2 -21.98,-18.42 -27.66,-32.04l-64.91 -160.58zm915.6 106.93c17.57,1.3 33.3,9.24 41.45,24.76 5.4,9.38 6.67,20.89 6.74,31.54l1.48 10.72 5.75 58.92c2.75,25.15 -6.81,47.16 -33.97,54.15 -26.88,7.76 -46.67,-5.89 -54.26,-29.78 -8.01,-23 -9.38,-41.2 -28.75,-56.62 -13.69,-10.86 -41.21,-16.44 -59.3,-16.44l-335.53 0c-12.31,0 -21.91,2.33 -30.23,12.63 -13.09,16.23 -17.47,35.39 -23.18,54.97l-0.21 0.77 -0.28 0.74c-7.77,22.05 -26.07,35.39 -51.23,33.94 -28.68,-1.62 -41.98,-21.13 -41.98,-47.31l0 -1.13 3.35 -81.24c0.07,-33.27 11.36,-45.16 36.06,-65.23 21.66,-17.64 40.78,-35.03 55.31,-59.48 19.02,-31.89 28.58,-63.99 42.05,-109.89 21.63,-73.38 16.09,-186.3 16.09,-262.71 0,-24.66 4.87,-50.91 23.5,-69.04 19.01,-18.49 46.49,-23.49 72.39,-23.49l219.14 0c28.36,0 58.46,5.67 78.25,25.96 20.04,19.47 25.89,47.13 25.89,73.73l0 411.52c0,7.51 1.94,13.61 7.02,18.55 6.39,5.93 15.88,8.43 24.45,9.46zm355.81 -436.64c-1.16,2.08 -1.41,4.55 -1.41,6.85l0 142.06 265.46 0c14.47,0 28.02,4.13 39.09,13.41l1.03 0.88 0.98 0.92c9.6,9.66 14.93,21.94 14.93,35.41 0,13.69 -5.44,26.36 -15.46,35.95 -11.04,10.55 -25.18,15.52 -40.57,15.52l-265.46 0 0 155.16c0,1.62 0.07,3.63 1.23,4.97 0.92,0.56 3.67,0.64 4.66,0.64l289.7 0c14.5,0 28.33,4.26 39.23,13.65l0.74 0.6 0.64 0.67c9.98,9.7 15.31,22.05 15.31,35.73 0,13.73 -5.44,26.29 -15.45,35.92 -10.98,10.47 -25.19,15.55 -40.47,15.55l-298.73 0c-31.61,0 -60.11,-10.37 -81.21,-33.69 -18.06,-20 -26.35,-44.3 -26.35,-70.76l0 -406.79c0,-26.67 8.22,-51.22 26.24,-71.44 20.99,-23.53 49.64,-33.79 81.32,-33.79l297.04 0c14.32,0 27.83,4.33 38.59,13.61l0.88 0.81 0.82 0.78c9.59,9.67 14.95,21.91 14.95,35.42 0,13.58 -5.43,26.14 -15.31,35.74 -10.76,10.47 -24.73,15.69 -39.93,15.69l-288.01 0c-0.88,0 -3.42,0.11 -4.48,0.53zm672.54 133.49l290.93 0 0 -192.75c0,-15.17 4.98,-29.5 16.12,-40.36l0.78 -0.78 0.88 -0.7c10.59,-8.89 23.57,-13.41 37.54,-13.41 13.86,0 26.81,4.76 37.15,13.72 12.31,10.73 18.2,25.55 18.2,41.53l0 533.47c0,15.77 -6.03,30.23 -18.2,40.78 -10.34,8.99 -23.29,13.76 -37.15,13.76 -13.97,0 -26.95,-4.52 -37.54,-13.37l-0.88 -0.74 -0.78 -0.78c-10.97,-10.69 -16.12,-24.66 -16.12,-39.65l0 -238.62 -290.93 0 0 238.62c0,15.77 -6.04,30.23 -18.21,40.78 -10.33,8.99 -23.28,13.76 -37.14,13.76 -13.97,0 -26.96,-4.52 -37.58,-13.37l-0.88 -0.74 -0.77 -0.78c-10.97,-10.69 -16.13,-24.66 -16.13,-39.65l0 -533.47c0,-15.17 5.01,-29.5 16.13,-40.36l0.77 -0.78 0.88 -0.7c10.62,-8.89 23.61,-13.41 37.58,-13.41 13.86,0 26.81,4.76 37.14,13.72 12.35,10.73 18.21,25.55 18.21,41.53l0 192.75zm-2846.21 106.15l0 160.17c0,2.04 0.1,6.98 2.11,8.46l0.99 0.78c4.62,3.74 18.34,4.34 23.92,4.34l110.17 0c27.83,-0.35 58.56,-5.22 80.82,-22.83 19.55,-15.48 26.25,-36.37 26.25,-60.5 0,-25.15 -5.68,-49.67 -26.07,-66.5 -23.81,-19.68 -61.21,-23.92 -91.19,-23.92l-127 0zm726.54 -12.02l137.65 0 -68.33 -180.66 -69.32 180.66zm741.96 -228.15c-0.6,5.51 -0.6,12.39 -0.6,16.06 0,63 1.8,167.18 -15.31,254 -11.71,59.58 -33.9,114.01 -60.25,142.24l282.47 0 0.88 0 0 -412.08 0 -0.18c-0.67,-0.04 -1.31,-0.04 -1.73,-0.04l-205.14 0 -0.32 0zm-566.24 -462.91l-213.82 0 -64.24 160.51c-5.64,14.11 -15.52,25.51 -28.72,32.32 -13.23,7.16 -28.01,8.39 -42.96,3.77 -14.19,-4.73 -25.05,-14.29 -31.72,-27.3 -7.62,-14.89 -6.81,-31.01 -0.32,-46.08l200.56 -510.68c5.78,-16.4 15.38,-31.04 30.12,-41.91 13.45,-9.56 28.79,-14.28 45.41,-14.28 16.01,0 30.83,5.11 43.74,14.35 14.54,10.48 24.03,25.12 29.74,40.86l202.11 512.83 0.21 0.81c4.76,14.39 4.41,29.35 -2.08,43.18 -6.25,13.26 -17.29,22.68 -31.47,27.38 -13.62,4.51 -27.55,3.91 -40.78,-1.59l-1.66 -0.67 -1.55 -0.85c-12.88,-7.2 -21.98,-18.41 -27.66,-32.03l-64.91 -160.62zm915.6 106.96c17.57,1.31 33.3,9.24 41.45,24.77 5.4,9.38 6.67,20.88 6.74,31.53l1.48 10.76 5.75 58.88c2.75,25.16 -6.81,47.17 -33.97,54.15 -26.88,7.77 -46.67,-5.89 -54.26,-29.81 -8.01,-22.96 -9.38,-41.16 -28.75,-56.58 -13.69,-10.87 -41.21,-16.44 -59.3,-16.44l-335.53 0c-12.31,0 -21.91,2.33 -30.23,12.59 -13.09,16.23 -17.47,35.42 -23.18,55l-0.21 0.78 -0.28 0.77c-7.77,22.02 -26.07,35.32 -51.23,33.91 -28.68,-1.63 -41.98,-21.14 -41.98,-47.31l0 -1.13 3.35 -81.25c0.07,-33.26 11.36,-45.15 36.06,-65.19 21.66,-17.67 40.78,-35.1 55.31,-59.48 19.02,-31.92 28.58,-64.03 42.05,-109.92 21.63,-73.38 16.09,-186.3 16.09,-262.72 0,-24.66 4.87,-50.9 23.5,-69.03 19.01,-18.49 46.49,-23.5 72.39,-23.5l219.14 0c28.36,0 58.46,5.68 78.25,25.96 20.04,19.48 25.89,47.14 25.89,73.74l0 411.48c0,7.54 1.94,13.61 7.02,18.59 6.39,5.96 15.88,8.43 24.45,9.45zm355.81 -436.6c-1.16,2.01 -1.41,4.52 -1.41,6.81l0 142.07 265.46 0c14.47,0 28.02,4.12 39.09,13.4l1.03 0.88 0.98 0.92c9.6,9.67 14.93,21.91 14.93,35.42 0,13.69 -5.44,26.35 -15.46,35.91 -11.04,10.59 -25.18,15.56 -40.57,15.56l-265.46 0 0 155.15c0,1.62 0.07,3.63 1.23,4.98 0.92,0.52 3.67,0.63 4.66,0.63l289.7 0c14.5,0 28.33,4.27 39.23,13.65l0.74 0.6 0.64 0.64c9.98,9.73 15.31,22.08 15.31,35.77 0,13.72 -5.44,26.28 -15.45,35.91 -10.98,10.51 -25.19,15.56 -40.47,15.56l-298.73 0c-31.61,0 -60.11,-10.37 -81.21,-33.69 -18.06,-20 -26.35,-44.31 -26.35,-70.77l0 -406.79c0,-26.63 8.22,-51.22 26.24,-71.43 20.99,-23.5 49.64,-33.8 81.32,-33.8l297.04 0c14.32,0 27.83,4.37 38.59,13.62l0.88 0.77 0.82 0.81c9.59,9.67 14.95,21.91 14.95,35.42 0,13.59 -5.43,26.14 -15.31,35.74 -10.76,10.48 -24.73,15.73 -39.93,15.73l-288.01 0c-0.88,0 -3.42,0.07 -4.48,0.53zm672.54 133.42l290.93 0 0 -192.72c0,-15.17 4.98,-29.49 16.12,-40.36l0.78 -0.77 0.88 -0.71c10.59,-8.89 23.57,-13.4 37.54,-13.4 13.86,0 26.81,4.76 37.15,13.72 12.31,10.72 18.2,25.54 18.2,41.52l0 533.47c0,15.77 -6.03,30.23 -18.2,40.78 -10.34,9 -23.29,13.76 -37.15,13.76 -13.97,0 -26.95,-4.51 -37.54,-13.37l-0.88 -0.74 -0.78 -0.78c-10.97,-10.69 -16.12,-24.66 -16.12,-39.65l0 -238.62 -290.93 0 0 238.62c0,15.77 -6.04,30.23 -18.21,40.78 -10.33,9 -23.28,13.76 -37.14,13.76 -13.97,0 -26.96,-4.51 -37.58,-13.37l-0.88 -0.74 -0.77 -0.78c-10.97,-10.69 -16.13,-24.66 -16.13,-39.65l0 -533.47c0,-15.17 5.01,-29.49 16.13,-40.36l0.77 -0.77 0.88 -0.71c10.62,-8.89 23.61,-13.4 37.58,-13.4 13.86,0 26.81,4.76 37.14,13.72 12.35,10.72 18.21,25.54 18.21,41.52l0 192.72zm-2846.21 106.19l0 160.16c0,2.05 0.1,6.95 2.11,8.47l0.99 0.77c4.62,3.74 18.34,4.34 23.92,4.34l110.17 0c27.83,-0.35 58.56,-5.22 80.82,-22.82 19.55,-15.49 26.25,-36.41 26.25,-60.5 0,-25.16 -5.68,-49.71 -26.07,-66.54 -23.81,-19.65 -61.21,-23.88 -91.19,-23.88l-127 0zm726.54 -12.03l137.65 0 -68.33 -180.66 -69.32 180.66zm741.96 -228.11c-0.6,5.47 -0.6,12.35 -0.6,15.98 0,63.05 1.8,167.22 -15.31,254 -11.71,59.59 -33.9,114.06 -60.25,142.28l282.47 0 0.88 0 0 -412.08 0 -0.14c-0.67,-0.04 -1.31,-0.04 -1.73,-0.04l-205.14 0 -0.32 0z"/>
 </g>
</svg>
