<svg viewBox="0 0 329.27 329" xmlns="http://www.w3.org/2000/svg" xmlns:xlink="http://www.w3.org/1999/xlink"><style>:root&gt;svg{display:none}:root&gt;svg:target{display:block}</style><svg viewBox="0 0 30 14" id="css--burger" xmlns="http://www.w3.org/2000/svg"><path stroke="#000" stroke-width="2" stroke-linecap="round" d="M1 1h27.989M1 6.998h27.989M1 12.996h27.989"/></svg><svg viewBox="0 0 329.269 329" id="css--close" xmlns="http://www.w3.org/2000/svg"><path d="M194.8 164.77L323.013 36.555c8.343-8.34 8.343-21.825 0-30.164-8.34-8.34-21.825-8.34-30.164 0L164.633 134.605 36.422 6.391c-8.344-8.34-21.824-8.34-30.164 0-8.344 8.34-8.344 21.824 0 30.164l128.21 128.215L6.259 292.984c-8.344 8.34-8.344 21.825 0 30.164a21.266 21.266 0 0015.082 6.25c5.46 0 10.922-2.09 15.082-6.25l128.21-128.214 128.216 128.214a21.273 21.273 0 0015.082 6.25c5.46 0 10.922-2.09 15.082-6.25 8.343-8.34 8.343-21.824 0-30.164zm0 0"/></svg><svg viewBox="0 0 17 17" id="css--instagram"><path d="M.5.5h16v16H.5z"/><circle cx="8.5" cy="8.5" r="3.08"/><circle cx="13.42" cy="3.58" r=".62"/></svg><svg viewBox="0 0 11.27 16.93" id="css--ok"><circle cx="5.63" cy="4.15" r="3.65"/><path d="M1.86 16.43l3.77-5.67 3.78 5.67M.5 8.74a7.53 7.53 0 0010.27 0"/></svg><svg viewBox="0 0 9.67 9.67" id="css--pattern"><path d="M.715 4.84L4.845.71l4.13 4.13-4.13 4.13z"/><path d="M3.982 4.84l.863-.863.862.863-.862.863z"/></svg><svg viewBox="0 0 15.99 15.98" id="css--phone"><path d="M4.3 5.71a1.85 1.85 0 002.39 0 1.78 1.78 0 00-.23-2.48l-2-2A2.08 2.08 0 001.55 1L1 1.46a1.8 1.8 0 00-.5 1.33 13 13 0 004 8.69 13 13 0 008.69 4 1.8 1.8 0 001.32-.53l.51-.51a2.08 2.08 0 00-.27-2.9l-2-2a1.78 1.78 0 00-2.48-.23 1.85 1.85 0 000 2.39"/></svg><svg viewBox="0 0 25.84 18.01" id="css--phone--popup"><path d="M4.3 7.74a1.85 1.85 0 002.39 0 1.78 1.78 0 00-.23-2.48l-2-2A2.08 2.08 0 001.55 3L1 3.49a1.8 1.8 0 00-.5 1.33 13 13 0 004 8.69 13 13 0 008.69 4 1.8 1.8 0 001.32-.51l.51-.51a2.08 2.08 0 00-.27-2.9l-2-2a1.78 1.78 0 00-2.48-.23 1.85 1.85 0 000 2.39m1.5-7.44a7.58 7.58 0 119.89 11.14"/><path d="M13.35.5l-1.58 5.81 6.48-.2"/></svg><svg viewBox="0 0 18 14" id="css--vk"><path d="M.5.5l10 13V.5h-2m9 0l-7 7 7 6"/></svg></svg>