<svg xmlns="http://www.w3.org/2000/svg" viewBox="0 0 900 600">
  <path d="M568 330l225 0 0 168c0,16 -13,29 -25,29l-397 0 0 -140c0,-1 -1,-1 -2,-1l-54 0c-1,0 -2,0 -2,1l0 140 -171 0c-3,0 -8,-2 -10,-3 -9,-4 -16,-14 -16,-26l0 -393c0,-12 7,-22 16,-26 3,-2 6,-3 11,-3l170 0 0 85 56 0c1,0 2,-1 2,-2l0 -83 396 0c14,0 26,13 26,29l0 168 -225 0 0 57zm-508 -232l0 405c0,13 4,24 8,33 6,11 8,13 16,22l6 6c14,11 33,20 51,20l627 0c15,0 34,-7 45,-15 8,-6 5,-4 12,-10l4 -5c2,-1 4,-3 5,-5 3,-5 5,-8 8,-13 4,-9 8,-20 8,-33l0 -404c0,-15 -8,-33 -16,-44 -1,-2 -1,-2 -2,-3 -1,-1 -1,-2 -2,-3 -8,-8 -7,-7 -16,-15 -12,-8 -30,-15 -46,-15l-627 0c-14,0 -33,6 -45,15l-11 9c-5,4 -14,17 -17,23 -2,6 -4,9 -5,15 -2,4 -3,11 -3,17z"/>
  <path d="M201 245c0,-22 23,-38 51,-20 5,3 16,13 20,17l17 21c1,2 1,3 2,5 1,2 2,3 3,5 -20,0 -40,0 -61,0 -11,0 -17,-2 -23,-7 -4,-4 -7,-8 -8,-14 0,-1 -1,-5 -1,-7zm189 28c6,-11 3,-8 11,-18 5,-6 9,-11 14,-16 14,-14 38,-31 57,-16 5,3 7,7 9,13 5,13 -1,25 -9,31 -10,8 -21,6 -38,6 -15,0 -29,0 -44,0zm-246 -32c0,18 2,28 10,43 11,22 33,39 56,44 4,0 6,1 10,1 7,1 15,1 22,1l-5 6c-18,19 -30,45 -35,70 -1,4 -2,3 5,5l40 7c3,0 7,1 10,1 0,-13 15,-38 26,-49 2,-2 3,-3 5,-5 4,-4 8,-7 12,-10 4,-3 9,-6 13,-9 4,-2 26,-14 29,-14 2,1 12,6 14,7 26,13 54,36 66,64 1,3 4,12 4,16 6,0 35,-6 43,-7 2,-1 11,-2 13,-3 0,-5 -4,-19 -6,-24 -2,-7 -6,-14 -9,-21 -5,-7 -13,-20 -19,-26l-7 -8c17,0 24,1 41,-5 7,-2 16,-6 22,-11 1,-1 2,-2 3,-2l6 -6c0,0 1,0 1,-1l1 0c4,-4 8,-9 11,-14 10,-17 14,-28 14,-49 0,-12 -5,-25 -8,-33 -16,-31 -43,-49 -80,-49 -22,0 -43,10 -60,23l-24 23c-2,2 -4,4 -6,6 -2,3 -18,25 -19,29 -3,-1 -9,-12 -11,-14 -15,-21 -31,-41 -54,-54 -17,-9 -29,-13 -51,-13 -12,0 -25,4 -33,8 -18,9 -33,22 -41,40 -4,8 -9,22 -9,33z"/>
</svg>
