<svg viewBox="0 0 15.99 15.98">
                                    <g>
                                       <path
                                          d="M4.3,5.71a1.85,1.85,0,0,0,2.39,0,1.78,1.78,0,0,0-.23-2.48l-2-2A2.08,2.08,0,0,0,1.55,1L1,1.46A1.8,1.8,0,0,0,.5,2.79a13,13,0,0,0,4,8.69,13,13,0,0,0,8.69,4,1.8,1.8,0,0,0,1.32-.53l.51-.51a2.08,2.08,0,0,0-.27-2.9l-2-2a1.78,1.78,0,0,0-2.48-.23,1.85,1.85,0,0,0,0,2.39"
                                       />
                                    </g>
                                 </svg>