<svg viewBox="0 0 25.84 18.01">
                                    <g>
                                       <path
                                          d="M4.3,7.74a1.85,1.85,0,0,0,2.39,0,1.78,1.78,0,0,0-.23-2.48l-2-2A2.08,2.08,0,0,0,1.55,3L1,3.49A1.8,1.8,0,0,0,.5,4.82a13,13,0,0,0,4,8.69,13,13,0,0,0,8.69,4A1.8,1.8,0,0,0,14.51,17l.51-.51a2.08,2.08,0,0,0-.27-2.9l-2-2a1.78,1.78,0,0,0-2.48-.23,1.85,1.85,0,0,0,0,2.39"
                                       />
                                       <path
                                          d="M11.77,6.31a7.58,7.58,0,1,1,9.89,11.14"
                                       />
                                       <polyline
                                          points="13.35 0.5 11.77 6.31 18.25 6.11"
                                       />
                                    </g>
                                 </svg>