<?xml version="1.0" encoding="utf-8"?><svg viewBox="0 0 2000 1714.29" xmlns="http://www.w3.org/2000/svg" xmlns:xlink="http://www.w3.org/1999/xlink"><style>:root>svg{display:none}:root>svg:target{display:block}</style><svg viewBox="0 0 12 12" fill="none" id="arrow" xmlns="http://www.w3.org/2000/svg"><path d="M10.51 6.255L6.255 10.51 2 6.255" stroke="var(--body-color)" stroke-width="1.991" stroke-linecap="round" stroke-linejoin="round"/></svg><svg viewBox="0 0 36.67 25.48" id="bed"><path d="M.5 14.87V25h3a1.9 1.9 0 001.9-1.9v-.9h25.88v.9a1.9 1.9 0 001.9 1.9h3V14.87a5.28 5.28 0 00-5.28-5.28H5.78A5.28 5.28 0 00.5 14.87zm2.8-1.08h30.07M3.65 7.49v-3A4 4 0 017.6.5h21.48A4 4 0 0133 4.45v3"/><path d="M10.21 5.4h4a2.19 2.19 0 012.19 2.19v2H8v-2a2.19 2.19 0 012.21-2.19zm12.54 0h4.11A2.14 2.14 0 0129 7.54v2.05h-8.39V7.54a2.14 2.14 0 012.14-2.14z"/></svg><svg viewBox="0 0 39 27" id="card" xmlns="http://www.w3.org/2000/svg"><path d="M31 2H4a2 2 0 00-2 2v15a2 2 0 002 2h27a2 2 0 002-2V4a2 2 0 00-2-2zM4 0a4 4 0 00-4 4v15a4 4 0 004 4 4 4 0 004 4h27a4 4 0 004-4V8a4 4 0 00-4-4 4 4 0 00-4-4H4zm4 25a2 2 0 01-2-2h25c1.48 0 2.773-.804 3.465-2H37v2a2 2 0 01-2 2H8zm29-6h-2v-2h2v2zm0-4h-2V6a2 2 0 012 2v7zm-15.5-4a2.5 2.5 0 100-5 2.5 2.5 0 000 5zm0 2c.925 0 1.785-.28 2.5-.758a4.5 4.5 0 100-7.484A4.5 4.5 0 1021.5 13zm5-2a2.49 2.49 0 01-1.1-.254c.382-.661.6-1.428.6-2.246a4.48 4.48 0 00-.6-2.246A2.5 2.5 0 1126.5 11zM6 6v5h5.172L13 9.172V6H6zM5 4a1 1 0 00-1 1v7a1 1 0 001 1h6.172a2 2 0 001.414-.586l1.828-1.828A2 2 0 0015 9.172V5a1 1 0 00-1-1H5zm-.5 12a.5.5 0 00-.5.5v1a.5.5 0 00.5.5h10a.5.5 0 00.5-.5v-1a.5.5 0 00-.5-.5h-10zm12.5.5a.5.5 0 01.5-.5h5a.5.5 0 01.5.5v1a.5.5 0 01-.5.5h-5a.5.5 0 01-.5-.5v-1zm8.5-.5a.5.5 0 00-.5.5v1a.5.5 0 00.5.5h5a.5.5 0 00.5-.5v-1a.5.5 0 00-.5-.5h-5z"/></svg><svg viewBox="0 0 329.269 329" id="close" xmlns="http://www.w3.org/2000/svg"><path d="M194.8 164.77L323.013 36.555c8.343-8.34 8.343-21.825 0-30.164-8.34-8.34-21.825-8.34-30.164 0L164.633 134.605 36.422 6.391c-8.344-8.34-21.824-8.34-30.164 0-8.344 8.34-8.344 21.824 0 30.164l128.21 128.215L6.259 292.984c-8.344 8.34-8.344 21.825 0 30.164a21.266 21.266 0 0015.082 6.25c5.46 0 10.922-2.09 15.082-6.25l128.21-128.214 128.216 128.214a21.273 21.273 0 0015.082 6.25c5.46 0 10.922-2.09 15.082-6.25 8.343-8.34 8.343-21.824 0-30.164zm0 0"/></svg><svg viewBox="0 0 900 600" id="gift" xmlns="http://www.w3.org/2000/svg"><path d="M568 330h225v168c0 16-13 29-25 29H371V387c0-1-1-1-2-1h-54c-1 0-2 0-2 1v140H142c-3 0-8-2-10-3-9-4-16-14-16-26V105c0-12 7-22 16-26 3-2 6-3 11-3h170v85h56c1 0 2-1 2-2V76h396c14 0 26 13 26 29v168H568v57zM60 98v405c0 13 4 24 8 33 6 11 8 13 16 22l6 6c14 11 33 20 51 20h627c15 0 34-7 45-15 8-6 5-4 12-10l4-5c2-1 4-3 5-5 3-5 5-8 8-13 4-9 8-20 8-33V99c0-15-8-33-16-44-1-2-1-2-2-3s-1-2-2-3c-8-8-7-7-16-15-12-8-30-15-46-15H141c-14 0-33 6-45 15l-11 9c-5 4-14 17-17 23-2 6-4 9-5 15-2 4-3 11-3 17z"/><path d="M201 245c0-22 23-38 51-20 5 3 16 13 20 17l17 21c1 2 1 3 2 5s2 3 3 5h-61c-11 0-17-2-23-7-4-4-7-8-8-14 0-1-1-5-1-7zm189 28c6-11 3-8 11-18 5-6 9-11 14-16 14-14 38-31 57-16 5 3 7 7 9 13 5 13-1 25-9 31-10 8-21 6-38 6h-44zm-246-32c0 18 2 28 10 43 11 22 33 39 56 44 4 0 6 1 10 1 7 1 15 1 22 1l-5 6c-18 19-30 45-35 70-1 4-2 3 5 5l40 7c3 0 7 1 10 1 0-13 15-38 26-49l5-5c4-4 8-7 12-10s9-6 13-9c4-2 26-14 29-14l14 7c26 13 54 36 66 64 1 3 4 12 4 16 6 0 35-6 43-7 2-1 11-2 13-3 0-5-4-19-6-24-2-7-6-14-9-21-5-7-13-20-19-26l-7-8c17 0 24 1 41-5 7-2 16-6 22-11 1-1 2-2 3-2l6-6s1 0 1-1h1c4-4 8-9 11-14 10-17 14-28 14-49 0-12-5-25-8-33-16-31-43-49-80-49-22 0-43 10-60 23l-24 23-6 6c-2 3-18 25-19 29-3-1-9-12-11-14-15-21-31-41-54-54-17-9-29-13-51-13-12 0-25 4-33 8-18 9-33 22-41 40-4 8-9 22-9 33z"/></svg><svg viewBox="0 0 17 17" id="instagram"><path d="M.5.5h16v16H.5z"/><circle cx="8.5" cy="8.5" r="3.08"/><circle cx="13.42" cy="3.58" r=".62"/></svg><svg viewBox="0 0 3500 3000" id="logo-desktop" xmlns="http://www.w3.org/2000/svg"><path d="M525.13 1065.3c.88 12.94-3.1 25.36-11.85 35.21-9.67 11.67-23.74 17.63-39.2 17.63H215.36c-4.27 0-17.01.29-20.68 2.83l-.24.24.03-.14c-2.43 3.71-2.92 15.88-2.92 20.11v115.01h119.9c60.29 0 130.32 8.89 178.02 48.08 43.92 36.09 58.7 88.65 58.7 142.91 0 51.47-14.22 100.61-53.31 136.84-40.21 37.29-94.47 49.32-148.52 49.32h-148.3c-29.6 0-58.99-6.31-82.41-24.73-23.78-18.66-34.79-44.7-34.79-74.19v-411.51c0-30.34 10.3-57.82 33.41-78.6 22.16-19.97 50.06-28.26 79.84-28.26h276.82c14.01 0 27.06 4.59 37.57 13.62l.71.63.67.64c9.59 9.35 14.88 21.2 15.27 34.36zM378.55 635.76c66.96-1.8 112.5-25.4 158.05-49.01 50.83-26.38 101.74-52.77 180.16-52.77s129.33 26.39 180.16 52.77c47.38 24.56 94.8 49.15 166.37 49.15 64.25 0 115.68-24.87 166.94-49.67 54.08-26.07 107.91-52.11 177.62-52.11 69.96-.07 124.6 26.04 179.39 52.18 51.93 24.73 104.1 49.6 168.98 49.6 71.58 0 119.03-24.59 166.37-49.15 50.87-26.38 101.74-52.77 180.13-52.77 78.42 0 129.36 26.39 180.2 52.77 47.38 24.56 94.79 49.15 166.33 49.15h.21v-.14c66.89-1.84 112.4-25.44 157.91-49.01 50.83-26.38 101.7-52.77 180.16-52.77 78.42 0 129.29 26.39 180.13 52.77 47.38 24.56 94.79 49.15 166.37 49.15h.03v-67c-65.68 0-109.71-19.75-166.4-49.14-50.84-26.39-101.71-52.77-180.13-52.77-78.46 0-129.33 26.38-180.16 52.77-45.55 23.6-91.09 47.2-158.08 49v.14h-.04c-71.54 0-118.95-24.58-166.33-49.14-50.84-26.39-101.78-52.77-180.2-52.77-78.39 0-129.26 26.38-180.13 52.77-47.34 24.56-94.79 49.14-166.37 49.14-64.88 0-117.05-24.87-168.98-49.6-54.79-26.17-109.43-52.24-179.39-52.17-69.71-.04-123.54 26-177.62 52.1-51.26 24.8-102.69 49.67-166.94 49.67-71.57 0-118.99-24.58-166.37-49.14-50.83-26.39-101.74-52.77-180.16-52.77s-129.33 26.38-180.16 52.77c-45.55 23.6-91.09 47.2-158.05 49v67zm0-223.24v67.03c66.96-1.84 112.5-25.44 158.05-49.04 50.83-26.39 101.74-52.74 180.16-52.74s129.33 26.35 180.16 52.74c47.38 24.55 94.8 49.14 166.37 49.14 64.25 0 115.68-24.87 166.94-49.63 54.08-26.15 107.91-52.11 177.62-52.11 69.96-.07 124.6 25.96 179.39 52.14 51.93 24.73 104.1 49.6 168.98 49.6 71.58 0 119.03-24.59 166.37-49.14 50.87-26.39 101.74-52.74 180.13-52.74 78.42 0 129.36 26.35 180.2 52.74 47.38 24.55 94.79 49.14 166.33 49.14h.21v-.1c66.89-1.87 112.4-25.47 157.91-49.04 50.83-26.39 101.7-52.74 180.16-52.74 78.42 0 129.29 26.35 180.13 52.74 47.38 24.55 94.79 49.14 166.37 49.14h.03v-66.99c-65.68 0-109.71-19.79-166.4-49.14-50.84-26.39-101.71-52.78-180.13-52.78-78.46 0-129.33 26.39-180.16 52.78-45.55 23.6-91.09 47.2-158.08 49v.14h-.04c-71.54 0-118.95-24.59-166.33-49.14-50.84-26.39-101.78-52.78-180.2-52.78-78.39 0-129.26 26.39-180.13 52.78-47.34 24.55-94.79 49.14-166.37 49.14-64.88 0-117.05-24.87-168.98-49.6-54.79-26.14-109.43-52.25-179.39-52.14-69.71-.04-123.54 26-177.62 52.1-51.26 24.77-102.69 49.64-166.94 49.64-71.57 0-118.99-24.59-166.37-49.14-50.83-26.39-101.74-52.78-180.16-52.78s-129.33 26.39-180.16 52.78c-45.55 23.6-91.09 47.2-158.05 49zm146.58 1445.9c.88 12.95-3.1 25.37-11.85 35.21-9.67 11.71-23.74 17.6-39.2 17.6H215.36c-4.27 0-17.01.32-20.68 2.86l-.24.25.03-.14c-2.43 3.7-2.92 15.87-2.92 20.11v115h119.9c60.29 0 130.32 8.89 178.02 48.08 43.92 36.09 58.7 88.66 58.7 142.91 0 51.48-14.22 100.62-53.31 136.85-40.21 37.29-94.47 49.28-148.52 49.28h-148.3c-29.6 0-58.99-6.28-82.41-24.69-23.78-18.67-34.79-44.7-34.79-74.19v-411.52c0-30.34 10.3-57.82 33.41-78.56 22.16-19.97 50.06-28.29 79.84-28.29h276.82c14.01 0 27.06 4.58 37.57 13.61l.71.64.67.63c9.59 9.35 14.88 21.24 15.27 34.36zm568.68 383.05H879.99l-64.24 160.48c-5.64 14.11-15.52 25.5-28.72 32.31-13.23 7.16-28.01 8.4-42.96 3.78-14.19-4.73-25.05-14.29-31.72-27.31-7.62-14.89-6.81-31.01-.32-46.07l200.56-510.72c5.78-16.37 15.38-31.01 30.12-41.91 13.45-9.52 28.79-14.25 45.41-14.25 16.01 0 30.83 5.12 43.74 14.36 14.54 10.48 24.03 25.15 29.74 40.89l202.11 512.83.21.77c4.76 14.4 4.41 29.36-2.08 43.18-6.25 13.3-17.29 22.69-31.47 27.38-13.62 4.52-27.55 3.92-40.78-1.55l-1.66-.67-1.55-.88c-12.88-7.2-21.98-18.42-27.66-32.04l-64.91-160.58zm915.6 106.93c17.57 1.3 33.3 9.24 41.45 24.76 5.4 9.38 6.67 20.89 6.74 31.54l1.48 10.72 5.75 58.92c2.75 25.15-6.81 47.16-33.97 54.15-26.88 7.76-46.67-5.89-54.26-29.78-8.01-23-9.38-41.2-28.75-56.62-13.69-10.86-41.21-16.44-59.3-16.44h-335.53c-12.31 0-21.91 2.33-30.23 12.63-13.09 16.23-17.47 35.39-23.18 54.97l-.21.77-.28.74c-7.77 22.05-26.07 35.39-51.23 33.94-28.68-1.62-41.98-21.13-41.98-47.31v-1.13l3.35-81.24c.07-33.27 11.36-45.16 36.06-65.23 21.66-17.64 40.78-35.03 55.31-59.48 19.02-31.89 28.58-63.99 42.05-109.89 21.63-73.38 16.09-186.3 16.09-262.71 0-24.66 4.87-50.91 23.5-69.04 19.01-18.49 46.49-23.49 72.39-23.49h219.14c28.36 0 58.46 5.67 78.25 25.96 20.04 19.47 25.89 47.13 25.89 73.73v411.52c0 7.51 1.94 13.61 7.02 18.55 6.39 5.93 15.88 8.43 24.45 9.46zm355.81-436.64c-1.16 2.08-1.41 4.55-1.41 6.85v142.06h265.46c14.47 0 28.02 4.13 39.09 13.41l1.03.88.98.92c9.6 9.66 14.93 21.94 14.93 35.41 0 13.69-5.44 26.36-15.46 35.95-11.04 10.55-25.18 15.52-40.57 15.52h-265.46v155.16c0 1.62.07 3.63 1.23 4.97.92.56 3.67.64 4.66.64h289.7c14.5 0 28.33 4.26 39.23 13.65l.74.6.64.67c9.98 9.7 15.31 22.05 15.31 35.73 0 13.73-5.44 26.29-15.45 35.92-10.98 10.47-25.19 15.55-40.47 15.55h-298.73c-31.61 0-60.11-10.37-81.21-33.69-18.06-20-26.35-44.3-26.35-70.76v-406.79c0-26.67 8.22-51.22 26.24-71.44 20.99-23.53 49.64-33.79 81.32-33.79h297.04c14.32 0 27.83 4.33 38.59 13.61l.88.81.82.78c9.59 9.67 14.95 21.91 14.95 35.42 0 13.58-5.43 26.14-15.31 35.74-10.76 10.47-24.73 15.69-39.93 15.69H2369.7c-.88 0-3.42.11-4.48.53zm672.54 133.49h290.93V1852.5c0-15.17 4.98-29.5 16.12-40.36l.78-.78.88-.7c10.59-8.89 23.57-13.41 37.54-13.41 13.86 0 26.81 4.76 37.15 13.72 12.31 10.73 18.2 25.55 18.2 41.53v533.47c0 15.77-6.03 30.23-18.2 40.78-10.34 8.99-23.29 13.76-37.15 13.76-13.97 0-26.95-4.52-37.54-13.37l-.88-.74-.78-.78c-10.97-10.69-16.12-24.66-16.12-39.65v-238.62h-290.93v238.62c0 15.77-6.04 30.23-18.21 40.78-10.33 8.99-23.28 13.76-37.14 13.76-13.97 0-26.96-4.52-37.58-13.37l-.88-.74-.77-.78c-10.97-10.69-16.13-24.66-16.13-39.65V1852.5c0-15.17 5.01-29.5 16.13-40.36l.77-.78.88-.7c10.62-8.89 23.61-13.41 37.58-13.41 13.86 0 26.81 4.76 37.14 13.72 12.35 10.73 18.21 25.55 18.21 41.53v192.75zM191.56 2151.4v160.17c0 2.04.1 6.98 2.11 8.46l.99.78c4.62 3.74 18.34 4.34 23.92 4.34h110.17c27.83-.35 58.56-5.22 80.82-22.83 19.55-15.48 26.25-36.37 26.25-60.5 0-25.15-5.68-49.67-26.07-66.5-23.81-19.68-61.21-23.92-91.19-23.92h-127zm726.54-12.02h137.65l-68.33-180.66-69.32 180.66zm741.96-228.15c-.6 5.51-.6 12.39-.6 16.06 0 63 1.8 167.18-15.31 254-11.71 59.58-33.9 114.01-60.25 142.24h283.35v-412.26c-.67-.04-1.31-.04-1.73-.04h-205.46zm-566.24-462.91H880l-64.24 160.51c-5.64 14.11-15.52 25.51-28.72 32.32-13.23 7.16-28.01 8.39-42.96 3.77-14.19-4.73-25.05-14.29-31.72-27.3-7.62-14.89-6.81-31.01-.32-46.08l200.56-510.68c5.78-16.4 15.38-31.04 30.12-41.91 13.45-9.56 28.79-14.28 45.41-14.28 16.01 0 30.83 5.11 43.74 14.35 14.54 10.48 24.03 25.12 29.74 40.86l202.11 512.83.21.81c4.76 14.39 4.41 29.35-2.08 43.18-6.25 13.26-17.29 22.68-31.47 27.38-13.62 4.51-27.55 3.91-40.78-1.59l-1.66-.67-1.55-.85c-12.88-7.2-21.98-18.41-27.66-32.03l-64.91-160.62zm915.6 106.96c17.57 1.31 33.3 9.24 41.45 24.77 5.4 9.38 6.67 20.88 6.74 31.53l1.48 10.76 5.75 58.88c2.75 25.16-6.81 47.17-33.97 54.15-26.88 7.77-46.67-5.89-54.26-29.81-8.01-22.96-9.38-41.16-28.75-56.58-13.69-10.87-41.21-16.44-59.3-16.44h-335.53c-12.31 0-21.91 2.33-30.23 12.59-13.09 16.23-17.47 35.42-23.18 55l-.21.78-.28.77c-7.77 22.02-26.07 35.32-51.23 33.91-28.68-1.63-41.98-21.14-41.98-47.31v-1.13l3.35-81.25c.07-33.26 11.36-45.15 36.06-65.19 21.66-17.67 40.78-35.1 55.31-59.48 19.02-31.92 28.58-64.03 42.05-109.92 21.63-73.38 16.09-186.3 16.09-262.72 0-24.66 4.87-50.9 23.5-69.03 19.01-18.49 46.49-23.5 72.39-23.5h219.14c28.36 0 58.46 5.68 78.25 25.96 20.04 19.48 25.89 47.14 25.89 73.74v411.48c0 7.54 1.94 13.61 7.02 18.59 6.39 5.96 15.88 8.43 24.45 9.45zm355.81-436.6c-1.16 2.01-1.41 4.52-1.41 6.81v142.07h265.46c14.47 0 28.02 4.12 39.09 13.4l1.03.88.98.92c9.6 9.67 14.93 21.91 14.93 35.42 0 13.69-5.44 26.35-15.46 35.91-11.04 10.59-25.18 15.56-40.57 15.56h-265.46v155.15c0 1.62.07 3.63 1.23 4.98.92.52 3.67.63 4.66.63h289.7c14.5 0 28.33 4.27 39.23 13.65l.74.6.64.64c9.98 9.73 15.31 22.08 15.31 35.77 0 13.72-5.44 26.28-15.45 35.91-10.98 10.51-25.19 15.56-40.47 15.56h-298.73c-31.61 0-60.11-10.37-81.21-33.69-18.06-20-26.35-44.31-26.35-70.77v-406.79c0-26.63 8.22-51.22 26.24-71.43 20.99-23.5 49.64-33.8 81.32-33.8h297.04c14.32 0 27.83 4.37 38.59 13.62l.88.77.82.81c9.59 9.67 14.95 21.91 14.95 35.42 0 13.59-5.43 26.14-15.31 35.74-10.76 10.48-24.73 15.73-39.93 15.73h-288.01c-.88 0-3.42.07-4.48.53zm672.54 133.42h290.93v-192.72c0-15.17 4.98-29.49 16.12-40.36l.78-.77.88-.71c10.59-8.89 23.57-13.4 37.54-13.4 13.86 0 26.81 4.76 37.15 13.72 12.31 10.72 18.2 25.54 18.2 41.52v533.47c0 15.77-6.03 30.23-18.2 40.78-10.34 9-23.29 13.76-37.15 13.76-13.97 0-26.95-4.51-37.54-13.37l-.88-.74-.78-.78c-10.97-10.69-16.12-24.66-16.12-39.65v-238.62h-290.93v238.62c0 15.77-6.04 30.23-18.21 40.78-10.33 9-23.28 13.76-37.14 13.76-13.97 0-26.96-4.51-37.58-13.37l-.88-.74-.77-.78c-10.97-10.69-16.13-24.66-16.13-39.65v-533.47c0-15.17 5.01-29.49 16.13-40.36l.77-.77.88-.71c10.62-8.89 23.61-13.4 37.58-13.4 13.86 0 26.81 4.76 37.14 13.72 12.35 10.72 18.21 25.54 18.21 41.52v192.72zm-2846.2 106.19v160.16c0 2.05.1 6.95 2.11 8.47l.99.77c4.62 3.74 18.34 4.34 23.92 4.34h110.17c27.83-.35 58.56-5.22 80.82-22.82 19.55-15.49 26.25-36.41 26.25-60.5 0-25.16-5.68-49.71-26.07-66.54-23.81-19.65-61.21-23.88-91.19-23.88h-127zm726.54-12.03h137.65l-68.33-180.66-69.32 180.66zm741.96-228.11c-.6 5.47-.6 12.35-.6 15.98 0 63.05 1.8 167.22-15.31 254-11.71 59.59-33.9 114.06-60.25 142.28h283.35v-412.22c-.67-.04-1.31-.04-1.73-.04h-205.46z"/></svg><svg viewBox="0 0 3500 3000" id="logo-mobile" xmlns="http://www.w3.org/2000/svg"><path d="M514.5 844.73c.88 12.94-3.11 25.36-11.86 35.21-9.66 11.67-23.74 17.63-39.19 17.63H204.76c-4.31 0-17.04.29-20.71 2.83l-.25.24.04-.14c-2.4 3.71-2.89 15.88-2.89 20.11v115.01h119.87c60.29 0 130.32 8.89 178.05 48.08 43.88 36.09 58.66 88.65 58.66 142.91 0 51.47-14.21 100.61-53.3 136.84-40.18 37.29-94.47 49.32-148.52 49.32H187.4c-29.6 0-58.95-6.31-82.41-24.73-23.77-18.66-34.75-44.7-34.75-74.19V902.34c0-30.34 10.27-57.82 33.38-78.6 22.15-19.97 50.06-28.26 79.87-28.26h276.79c14 0 27.09 4.59 37.57 13.62l.7.63.67.64c9.6 9.35 14.92 21.2 15.28 34.36zM367.92 415.19c66.96-1.8 112.53-25.4 158.04-49.01 50.87-26.38 101.74-52.77 180.2-52.77 78.39 0 129.29 26.39 180.13 52.77 47.38 24.56 94.79 49.15 166.37 49.15 64.24 0 115.68-24.87 166.93-49.67 54.09-26.07 107.95-52.11 177.63-52.11 69.95-.07 124.6 26.04 179.39 52.18 51.96 24.73 104.14 49.6 168.98 49.6 71.57 0 119.02-24.59 166.37-49.15 50.87-26.38 101.77-52.77 180.16-52.77s129.33 26.39 180.16 52.77c47.38 24.56 94.83 49.15 166.37 49.15h.21v-.14c66.86-1.84 112.36-25.44 157.87-49.01 50.84-26.38 101.74-52.77 180.17-52.77 78.42 0 129.32 26.39 180.12 52.77 47.38 24.56 94.83 49.15 166.37 49.15h.08v-67c-65.69 0-109.75-19.75-166.45-49.14-50.8-26.39-101.7-52.77-180.12-52.77-78.43 0-129.33 26.38-180.17 52.77-45.54 23.6-91.08 47.2-158.04 49v.14h-.04c-71.54 0-118.99-24.58-166.37-49.14-50.83-26.39-101.77-52.77-180.16-52.77s-129.29 26.38-180.16 52.77c-47.35 24.56-94.8 49.14-166.37 49.14-64.84 0-117.02-24.87-168.98-49.6-54.79-26.17-109.44-52.24-179.39-52.17-69.68-.04-123.54 26-177.63 52.1-51.25 24.8-102.69 49.67-166.93 49.67-71.58 0-118.99-24.58-166.37-49.14-50.84-26.39-101.74-52.77-180.13-52.77-78.46 0-129.33 26.38-180.2 52.77-45.51 23.6-91.08 47.2-158.04 49v67zm0-223.24v67.03c66.96-1.84 112.53-25.44 158.04-49.04 50.87-26.39 101.74-52.74 180.2-52.74 78.39 0 129.29 26.35 180.13 52.74 47.38 24.55 94.79 49.14 166.37 49.14 64.24 0 115.68-24.87 166.93-49.63 54.09-26.15 107.95-52.11 177.63-52.11 69.95-.07 124.6 25.96 179.39 52.14 51.96 24.73 104.14 49.6 168.98 49.6 71.57 0 119.02-24.59 166.37-49.14 50.87-26.39 101.77-52.74 180.16-52.74s129.33 26.35 180.16 52.74c47.38 24.55 94.83 49.14 166.37 49.14h.21v-.1c66.86-1.87 112.36-25.47 157.87-49.04 50.84-26.39 101.74-52.74 180.17-52.74 78.42 0 129.32 26.35 180.12 52.74 47.38 24.55 94.83 49.14 166.37 49.14h.08v-66.99c-65.69 0-109.75-19.79-166.45-49.14-50.8-26.39-101.7-52.78-180.12-52.78-78.43 0-129.33 26.39-180.17 52.78-45.54 23.6-91.08 47.2-158.04 49v.14h-.04c-71.54 0-118.99-24.59-166.37-49.14-50.83-26.39-101.77-52.78-180.16-52.78s-129.29 26.39-180.16 52.78c-47.35 24.55-94.8 49.14-166.37 49.14-64.84 0-117.02-24.87-168.98-49.6-54.79-26.14-109.44-52.25-179.39-52.14-69.68-.04-123.54 26-177.63 52.1-51.25 24.77-102.69 49.64-166.93 49.64-71.58 0-118.99-24.59-166.37-49.14-50.84-26.39-101.74-52.78-180.13-52.78-78.46 0-129.33 26.39-180.2 52.78-45.51 23.6-91.08 47.2-158.04 49zm146.58 1445.9c.88 12.95-3.11 25.37-11.86 35.21-9.66 11.71-23.74 17.6-39.19 17.6H204.76c-4.31 0-17.04.32-20.71 2.86l-.25.25.04-.14c-2.4 3.7-2.89 15.87-2.89 20.11v115h119.87c60.29 0 130.32 8.89 178.05 48.08 43.88 36.09 58.66 88.66 58.66 142.91 0 51.48-14.21 100.62-53.3 136.85-40.18 37.29-94.47 49.28-148.52 49.28H187.4c-29.6 0-58.95-6.28-82.41-24.69-23.77-18.67-34.75-44.7-34.75-74.19v-411.52c0-30.34 10.27-57.82 33.38-78.56 22.15-19.97 50.06-28.29 79.87-28.29h276.79c14 0 27.09 4.58 37.57 13.61l.7.64.67.63c9.6 9.35 14.92 21.24 15.28 34.36zm568.71 383.05H869.36l-64.24 160.48c-5.65 14.11-15.53 25.5-28.72 32.31-13.19 7.16-28.01 8.4-42.97 3.78-14.18-4.73-25.05-14.29-31.71-27.31-7.62-14.89-6.78-31.01-.32-46.07l200.55-510.72c5.79-16.37 15.38-31.01 30.13-41.91 13.44-9.52 28.79-14.25 45.4-14.25 16.02 0 30.84 5.12 43.75 14.36 14.57 10.48 24.02 25.15 29.74 40.89l202.1 512.83.21.77c4.8 14.4 4.41 29.36-2.08 43.18-6.24 13.3-17.28 22.69-31.46 27.38-13.62 4.52-27.56 3.92-40.79-1.55l-1.62-.67-1.59-.88c-12.87-7.2-21.97-18.42-27.65-32.04l-64.88-160.58zm915.56 106.93c17.57 1.3 33.31 9.24 41.49 24.76 5.4 9.38 6.63 20.89 6.74 31.54l1.48 10.72 5.72 58.92c2.75 25.15-6.81 47.16-33.94 54.15-26.92 7.76-46.67-5.89-54.29-29.78-8.01-23-9.39-41.2-28.76-56.62-13.68-10.86-41.2-16.44-59.3-16.44h-335.49c-12.31 0-21.94 2.33-30.27 12.63-13.05 16.23-17.46 35.39-23.17 54.97l-.22.77-.28.74c-7.76 22.05-26.07 35.39-51.19 33.94-28.71-1.62-42.01-21.13-42.01-47.31l.03-1.13 3.32-81.24c.07-33.27 11.36-45.16 36.05-65.23 21.7-17.64 40.82-35.03 55.32-59.48 19.01-31.89 28.61-63.99 42.08-109.89 21.59-73.38 16.06-186.3 16.06-262.71 0-24.66 4.86-50.91 23.49-69.04 19.02-18.49 46.5-23.49 72.43-23.49h219.14c28.33 0 58.42 5.67 78.25 25.96 20 19.47 25.86 47.13 25.86 73.73v411.52c0 7.51 1.94 13.61 7.02 18.55 6.38 5.93 15.87 8.43 24.44 9.46zm355.85-436.64c-1.2 2.08-1.44 4.55-1.44 6.85v142.06h265.46c14.5 0 28.01 4.13 39.09 13.41l1.02.88.99.92c9.63 9.66 14.92 21.94 14.92 35.41 0 13.69-5.43 26.36-15.45 35.95-11.04 10.55-25.19 15.52-40.57 15.52h-265.46v155.16c0 1.62.07 3.63 1.23 4.97.92.56 3.67.64 4.66.64h289.7c14.5 0 28.33 4.26 39.26 13.65l.71.6.63.67c9.99 9.7 15.31 22.05 15.31 35.73 0 13.73-5.43 26.29-15.45 35.92-10.93 10.47-25.15 15.55-40.46 15.55h-298.73c-31.61 0-60.12-10.37-81.18-33.69-18.1-20-26.39-44.3-26.39-70.76v-406.79c0-26.67 8.22-51.22 26.29-71.44 20.95-23.53 49.63-33.79 81.28-33.79h297.07c14.32 0 27.8 4.33 38.59 13.61l.85.81.81.78c9.6 9.67 14.96 21.91 14.96 35.42 0 13.58-5.43 26.14-15.31 35.74-10.73 10.47-24.73 15.69-39.9 15.69h-288.04c-.89 0-3.43.11-4.45.53zm672.5 133.49h290.94v-192.75c0-15.17 4.97-29.5 16.12-40.36l.78-.78.88-.7c10.58-8.89 23.56-13.41 37.57-13.41 13.83 0 26.77 4.76 37.15 13.72 12.31 10.73 18.16 25.55 18.16 41.53v533.47c0 15.77-5.99 30.23-18.16 40.78-10.38 8.99-23.32 13.76-37.15 13.76-14.01 0-26.99-4.52-37.57-13.37l-.88-.74-.78-.78c-10.97-10.69-16.12-24.66-16.12-39.65v-238.62h-290.94v238.62c0 15.77-6.03 30.23-18.2 40.78-10.34 8.99-23.28 13.76-37.15 13.76-13.97 0-26.95-4.52-37.57-13.37l-.88-.74-.74-.78c-11.01-10.69-16.12-24.66-16.12-39.65v-533.47c0-15.17 4.97-29.5 16.12-40.36l.74-.78.88-.7c10.62-8.89 23.6-13.41 37.57-13.41 13.87 0 26.81 4.76 37.15 13.72 12.35 10.73 18.2 25.55 18.2 41.53v192.75zm-2846.2 106.15V2091c0 2.04.07 6.98 2.08 8.46l.99.78c4.62 3.74 18.37 4.34 23.91 4.34h110.18c27.83-.35 58.56-5.22 80.82-22.83 19.54-15.48 26.28-36.37 26.28-60.5 0-25.15-5.72-49.67-26.11-66.5-23.81-19.68-61.2-23.92-91.15-23.92h-127zm726.51-12.02h137.65l-68.33-180.66-69.32 180.66zm741.96-228.15c-.6 5.51-.6 12.39-.6 16.06 0 63 1.8 167.18-15.31 254-11.71 59.58-33.9 114.01-60.26 142.24h283.36V1690.7c-.68-.04-1.27-.04-1.73-.04h-205.46zm-566.21-462.91H869.33l-64.24 160.51c-5.65 14.11-15.53 25.51-28.72 32.32-13.19 7.16-28.01 8.39-42.97 3.77-14.18-4.73-25.05-14.29-31.71-27.3-7.62-14.89-6.78-31.01-.32-46.08l200.55-510.68c5.79-16.4 15.38-31.04 30.13-41.91 13.44-9.56 28.79-14.28 45.4-14.28 16.02 0 30.84 5.11 43.75 14.35 14.57 10.48 24.02 25.12 29.74 40.86l202.1 512.83.21.81c4.8 14.39 4.41 29.35-2.08 43.18-6.24 13.26-17.28 22.68-31.46 27.38-13.62 4.51-27.56 3.91-40.79-1.59l-1.62-.67-1.59-.85c-12.87-7.2-21.97-18.41-27.65-32.03l-64.88-160.62zm915.56 106.96c17.57 1.31 33.31 9.24 41.49 24.77 5.4 9.38 6.63 20.88 6.74 31.53l1.48 10.76 5.72 58.88c2.75 25.16-6.81 47.17-33.94 54.15-26.92 7.77-46.67-5.89-54.29-29.81-8.01-22.96-9.39-41.16-28.76-56.58-13.68-10.87-41.2-16.44-59.3-16.44h-335.49c-12.31 0-21.94 2.33-30.27 12.59-13.05 16.23-17.46 35.42-23.17 55l-.22.78-.28.77c-7.76 22.02-26.07 35.32-51.19 33.91-28.71-1.63-42.01-21.14-42.01-47.31l.03-1.13 3.32-81.25c.07-33.26 11.36-45.15 36.05-65.19 21.7-17.67 40.82-35.1 55.32-59.48 19.01-31.92 28.61-64.03 42.08-109.92 21.59-73.38 16.06-186.3 16.06-262.72 0-24.66 4.86-50.9 23.49-69.03 19.02-18.49 46.5-23.5 72.43-23.5h219.14c28.33 0 58.42 5.68 78.25 25.96 20 19.48 25.86 47.14 25.86 73.74v411.48c0 7.54 1.94 13.61 7.02 18.59 6.38 5.96 15.87 8.43 24.44 9.45zm355.85-436.6c-1.2 2.01-1.44 4.52-1.44 6.81v142.07h265.46c14.5 0 28.01 4.12 39.09 13.4l1.02.88.99.92c9.63 9.67 14.92 21.91 14.92 35.42 0 13.69-5.43 26.35-15.45 35.91-11.04 10.59-25.19 15.56-40.57 15.56h-265.46v155.15c0 1.62.07 3.63 1.23 4.98.92.52 3.67.63 4.66.63h289.7c14.5 0 28.33 4.27 39.26 13.65l.71.6.63.64c9.99 9.73 15.31 22.08 15.31 35.77 0 13.72-5.43 26.28-15.45 35.91-10.93 10.51-25.15 15.56-40.46 15.56h-298.73c-31.61 0-60.12-10.37-81.18-33.69-18.1-20-26.39-44.31-26.39-70.77V900.72c0-26.63 8.22-51.22 26.29-71.43 20.95-23.5 49.63-33.8 81.28-33.8h297.07c14.32 0 27.8 4.37 38.59 13.62l.85.77.81.81c9.6 9.67 14.96 21.91 14.96 35.42 0 13.59-5.43 26.14-15.31 35.74-10.73 10.48-24.73 15.73-39.9 15.73h-288.04c-.89 0-3.43.07-4.45.53zm672.5 133.42h290.94V838.81c0-15.17 4.97-29.49 16.12-40.36l.78-.77.88-.71c10.58-8.89 23.56-13.4 37.57-13.4 13.83 0 26.77 4.76 37.15 13.72 12.31 10.72 18.16 25.54 18.16 41.52v533.47c0 15.77-5.99 30.23-18.16 40.78-10.38 9-23.32 13.76-37.15 13.76-14.01 0-26.99-4.51-37.57-13.37l-.88-.74-.78-.78c-10.97-10.69-16.12-24.66-16.12-39.65v-238.62h-290.94v238.62c0 15.77-6.03 30.23-18.2 40.78-10.34 9-23.28 13.76-37.15 13.76-13.97 0-26.95-4.51-37.57-13.37l-.88-.74-.74-.78c-11.01-10.69-16.12-24.66-16.12-39.65V838.81c0-15.17 4.97-29.49 16.12-40.36l.74-.77.88-.71c10.62-8.89 23.6-13.4 37.57-13.4 13.87 0 26.81 4.76 37.15 13.72 12.35 10.72 18.2 25.54 18.2 41.52v192.72zm-2846.2 106.19v160.16c0 2.05.07 6.95 2.08 8.47l.99.77c4.62 3.74 18.37 4.34 23.91 4.34h110.18c27.83-.35 58.56-5.22 80.82-22.82 19.54-15.49 26.28-36.41 26.28-60.5 0-25.16-5.72-49.71-26.11-66.54-23.81-19.65-61.2-23.88-91.15-23.88h-127zm726.51-12.03h137.65l-68.33-180.66-69.32 180.66zm741.96-228.11c-.6 5.47-.6 12.35-.6 15.98 0 63.05 1.8 167.22-15.31 254-11.71 59.59-33.9 114.06-60.26 142.28h283.36V897.62c-.68-.04-1.27-.04-1.73-.04h-205.46zM482.25 2707h-62.3c-2.58 0-2.93-9.2-2.93-18.41 0-8.86.35-18.06 2.93-18.06h173.21c1.48 0 2.97 9.2 2.97 18.06 0 9.21-1.49 18.41-2.97 18.41H530.9v144.82c0 1.48-12.88 2.22-24.34 2.22-13.3 0-24.31-.74-24.31-2.22V2707zm265.79 34.3c0-29.1-17.71-40.18-39.44-40.18-18.06 0-38.74 9.6-43.5 40.18h82.94zm47.84 91.41c-19.16 15.1-54.83 23.21-80.33 23.21-53.02 0-100.93-23.6-100.93-92.89 0-63.04 43.07-95.81 95.81-95.81 63.36 0 85.83 41.66 85.83 87.31v17.32H665.1c1.8 23.61 16.58 47.21 56.73 47.21 24.02 0 39.05-6.99 55.28-16.97l3.7-2.19c5.93 4.02 16.94 21.34 16.94 31.33l-1.87 1.48zm101.47-16.91c10.69 4.02 21.03 5.5 34.32 5.5 39.76 0 55.6-27.97 55.6-64.48 0-28.4-12.13-51.62-42.01-51.62-27.27 0-47.91 22.86-47.91 51.26v59.34zm-47.87-144.46c0-1.48 12.49-2.22 24.3-2.22 11.43 0 23.57.74 23.57 2.22v28.33h.39c12.1-20.61 32.07-32.39 62.62-32.39 52.35 0 76.65 38.31 76.65 88.8 0 53.09-34.29 99.87-103.15 99.87-11.43 0-24.37-1.84-35.77-4.8v89.18c0 1.48-11.75 2.22-23.95 2.22-12.17 0-24.66-.74-24.66-2.22v-268.99zm240.62-.04c0-1.48 16.26-2.22 32.45-2.22 8.44 0 16.59.35 23.96.74 7.41.35 11.08 1.09 11.46 1.48l33.87 96.2c3.32 9.17 5.15 21.34 7.76 30.52h1.84c2.57-8.79 5.53-21.73 8.46-30.91l32.78-95.81c1.09-1.48 17.32-2.22 33.9-2.22 17.32 0 35.77.74 35.77 2.22v180.55c0 1.48-12.52 2.22-23.95 2.22-12.92 0-24.31-.74-24.31-2.22v-102.48c0-10.27 1.09-21.73 1.09-35.35h-1.87c-2.96 9.95-7.33 25.08-10.3 33.51l-36.48 104.32c-1.09 1.48-9.2 2.22-16.93 2.22-8.54 0-17-.74-18.1-2.22l-37.6-103.58c-2.93-8.43-6.99-23.95-9.95-34.25h-1.87c.39 12.88 1.87 25.08 1.87 35.35v102.48c0 1.48-10.69 2.22-22.05 2.22-10.37 0-21.8-.74-21.8-2.22V2671.3zm470.7 0c0-1.48 12.52-2.22 24.34-2.22 12.91 0 24.66.74 24.66 2.22v180.55c0 1.48-11.75 2.22-24.66 2.22-12.17 0-24.34-.74-24.34-2.22V2671.3zm-109.75 145.94c17.96 0 37.54-.74 37.54-25.82 0-21.34-19.58-23.57-35.39-23.57h-26.17v49.39h24.02zm-71.9-145.94c0-1.48 12.53-2.22 24.35-2.22 12.8 0 24.27.74 24.27 2.22v61.13h37.57c29.56 0 72.67 8.51 72.67 58.64 0 38.31-26.99 61.52-78.92 61.52h-79.94V2671.3zm430.95-76.7h172.09c2.57 0 2.96 9.98 2.96 19.9 0 9.24-.39 19.15-2.96 19.15h-121.25v67.45h95.81c1.87 0 2.22 10.34 2.22 20.29 0 9.91-.74 18.77-2.22 18.77h-95.81v73.37h127.17c2.58 0 3.32 9.92 3.32 19.9 0 9.17-.74 19.12-3.32 19.12H1810.1V2594.6zm258.8 112.4h-62.3c-2.58 0-2.96-9.2-2.96-18.41 0-8.86.38-18.06 2.96-18.06h173.25c1.48 0 2.93 9.2 2.93 18.06 0 9.21-1.45 18.41-2.93 18.41h-62.3v144.82c0 1.48-12.91 2.22-24.38 2.22-13.23 0-24.27-.74-24.27-2.22V2707zm153.7-35.7c0-1.48 12.49-2.22 24.31-2.22 12.95 0 24.34.74 24.34 2.22v70.38h21.73l58.63-70.38c1.84-1.48 12.53-2.22 25.37-2.22 14.04 0 29.14 0 29.14 2.22l-74.08 84.74 77.78 95.81c0 1.09-14.39 2.22-30.97 2.22-13.27 0-25.01-.74-26.49-2.22l-59.38-73.7h-21.73v73.7c0 1.48-11.39 2.22-24.34 2.22-12.17 0-24.31-.74-24.31-2.22V2671.3zm282 182.8l-82.13-182.77c0-1.48 12.18-2.22 26.92-2.22 13.58 0 26.53.74 27.62 2.22l41.63 101.32c5.54 12.91 6.67 25.43 8.12 33.19h1.87c1.48-7.41 2.96-18.45 6.94-29.88l39.48-104.63c1.09-1.84 11.4-2.22 24.27-2.22 13.65 0 26.21.74 26.21 2.22l-86.6 207.08c-17.36 41.27-42.02 65.97-80.4 65.97-11.75 0-26.81-2.93-35.7-8.5 0-12.1 4.05-26.85 10.33-33.87 6.28 3.32 14.36 6.28 21.7 6.28 16.62 0 29.17-4.41 43.88-39.48l5.86-14.71zm276.1-147.1h-52.35v11.79c0 40.18-1.13 129.71-80.68 138.57-7.37-4.41-11.46-17.32-11.46-28.75 0-3.32-.32-6.64.77-9.6 39.41-5.85 47.87-40.89 47.87-118.64v-29.84h144.5v181.29c0 1.48-12.2 2.22-24.34 2.22-12.88 0-24.31-.74-24.31-2.22V2707zm191.7 110.2c18.07 0 37.54-.74 37.54-25.79 0-21.37-19.47-23.6-35.35-23.6h-30.58v49.39h28.39zm-76.3-145.94c0-1.48 12.49-2.22 24.3-2.22 12.95 0 24.35.74 24.35 2.22v61.17h41.98c29.14 0 73.02 8.47 73.02 58.6 0 38.31-27.3 61.52-79.23 61.52h-84.42v-181.29z"/></svg><svg viewBox="0 0 11.27 16.93" id="ok"><circle cx="5.63" cy="4.15" r="3.65"/><path d="M1.86 16.43l3.77-5.67 3.78 5.67M.5 8.74a7.53 7.53 0 0010.27 0"/></svg><svg viewBox="0 0 9.67 9.67" id="pattern"><path d="M.715 4.84L4.845.71l4.13 4.13-4.13 4.13z"/><path d="M3.982 4.84l.863-.863.862.863-.862.863z"/></svg><svg viewBox="0 0 15.99 15.98" id="phone"><path d="M4.3 5.71a1.85 1.85 0 002.39 0 1.78 1.78 0 00-.23-2.48l-2-2A2.08 2.08 0 001.55 1L1 1.46a1.8 1.8 0 00-.5 1.33 13 13 0 004 8.69 13 13 0 008.69 4 1.8 1.8 0 001.32-.53l.51-.51a2.08 2.08 0 00-.27-2.9l-2-2a1.78 1.78 0 00-2.48-.23 1.85 1.85 0 000 2.39"/></svg><svg viewBox="0 0 25.84 18.01" id="phone--popup"><path d="M4.3 7.74a1.85 1.85 0 002.39 0 1.78 1.78 0 00-.23-2.48l-2-2A2.08 2.08 0 001.55 3L1 3.49a1.8 1.8 0 00-.5 1.33 13 13 0 004 8.69 13 13 0 008.69 4 1.8 1.8 0 001.32-.51l.51-.51a2.08 2.08 0 00-.27-2.9l-2-2a1.78 1.78 0 00-2.48-.23 1.85 1.85 0 000 2.39m1.5-7.44a7.58 7.58 0 119.89 11.14"/><path d="M13.35.5l-1.58 5.81 6.48-.2"/></svg><svg viewBox="0 0 18 14" id="vk"><path d="M.5.5l10 13V.5h-2m9 0l-7 7 7 6"/></svg></svg>