<svg xmlns="http://www.w3.org/2000/svg" width="35mm" height="30mm" viewBox="0 0 3500 3000" shape-rendering="geometricPrecision" text-rendering="geometricPrecision" image-rendering="optimizeQuality" fill-rule="evenodd" clip-rule="evenodd"><g fill="#fff"><path d="M514.5 844.73c.88 12.94-3.11 25.36-11.86 35.21-9.66 11.67-23.74 17.63-39.19 17.63H204.76c-4.31 0-17.04.29-20.71 2.83l-.25.24.04-.14c-2.4 3.71-2.89 15.88-2.89 20.11v115.01h119.87c60.29 0 130.32 8.89 178.05 48.08 43.88 36.09 58.66 88.65 58.66 142.91 0 51.47-14.21 100.61-53.3 136.84-40.18 37.29-94.47 49.32-148.52 49.32H187.4c-29.6 0-58.95-6.31-82.41-24.73-23.77-18.66-34.75-44.7-34.75-74.19V902.34c0-30.34 10.27-57.82 33.38-78.6 22.15-19.97 50.06-28.26 79.87-28.26h276.79c14 0 27.09 4.59 37.57 13.62l.7.63.67.64c9.6 9.35 14.92 21.2 15.28 34.36zM367.92 415.19c66.96-1.8 112.53-25.4 158.04-49.01 50.87-26.38 101.74-52.77 180.2-52.77 78.39 0 129.29 26.39 180.13 52.77 47.38 24.56 94.79 49.15 166.37 49.15 64.24 0 115.68-24.87 166.93-49.67 54.09-26.07 107.95-52.11 177.63-52.11 69.95-.07 124.6 26.04 179.39 52.18 51.96 24.73 104.14 49.6 168.98 49.6 71.57 0 119.02-24.59 166.37-49.15 50.87-26.38 101.77-52.77 180.16-52.77s129.33 26.39 180.16 52.77c47.38 24.56 94.83 49.15 166.37 49.15h.21v-.14c66.86-1.84 112.36-25.44 157.87-49.01 50.84-26.38 101.74-52.77 180.17-52.77 78.42 0 129.32 26.39 180.12 52.77 47.38 24.56 94.83 49.15 166.37 49.15h.08v-67c-65.69 0-109.75-19.75-166.45-49.14-50.8-26.39-101.7-52.77-180.12-52.77-78.43 0-129.33 26.38-180.17 52.77-45.54 23.6-91.08 47.2-158.04 49v.14h-.04c-71.54 0-118.99-24.58-166.37-49.14-50.83-26.39-101.77-52.77-180.16-52.77s-129.29 26.38-180.16 52.77c-47.35 24.56-94.8 49.14-166.37 49.14-64.84 0-117.02-24.87-168.98-49.6-54.79-26.17-109.44-52.24-179.39-52.17-69.68-.04-123.54 26-177.63 52.1-51.25 24.8-102.69 49.67-166.93 49.67-71.58 0-118.99-24.58-166.37-49.14-50.84-26.39-101.74-52.77-180.13-52.77-78.46 0-129.33 26.38-180.2 52.77-45.51 23.6-91.08 47.2-158.04 49v67zm0-223.24v67.03c66.96-1.84 112.53-25.44 158.04-49.04 50.87-26.39 101.74-52.74 180.2-52.74 78.39 0 129.29 26.35 180.13 52.74 47.38 24.55 94.79 49.14 166.37 49.14 64.24 0 115.68-24.87 166.93-49.63 54.09-26.15 107.95-52.11 177.63-52.11 69.95-.07 124.6 25.96 179.39 52.14 51.96 24.73 104.14 49.6 168.98 49.6 71.57 0 119.02-24.59 166.37-49.14 50.87-26.39 101.77-52.74 180.16-52.74s129.33 26.35 180.16 52.74c47.38 24.55 94.83 49.14 166.37 49.14h.21v-.1c66.86-1.87 112.36-25.47 157.87-49.04 50.84-26.39 101.74-52.74 180.17-52.74 78.42 0 129.32 26.35 180.12 52.74 47.38 24.55 94.83 49.14 166.37 49.14h.08v-66.99c-65.69 0-109.75-19.79-166.45-49.14-50.8-26.39-101.7-52.78-180.12-52.78-78.43 0-129.33 26.39-180.17 52.78-45.54 23.6-91.08 47.2-158.04 49v.14h-.04c-71.54 0-118.99-24.59-166.37-49.14-50.83-26.39-101.77-52.78-180.16-52.78s-129.29 26.39-180.16 52.78c-47.35 24.55-94.8 49.14-166.37 49.14-64.84 0-117.02-24.87-168.98-49.6-54.79-26.14-109.44-52.25-179.39-52.14-69.68-.04-123.54 26-177.63 52.1-51.25 24.77-102.69 49.64-166.93 49.64-71.58 0-118.99-24.59-166.37-49.14-50.84-26.39-101.74-52.78-180.13-52.78-78.46 0-129.33 26.39-180.2 52.78-45.51 23.6-91.08 47.2-158.04 49zM514.5 1637.84c.88 12.95-3.11 25.37-11.86 35.21-9.66 11.71-23.74 17.6-39.19 17.6H204.76c-4.31 0-17.04.32-20.71 2.86l-.25.25.04-.14c-2.4 3.7-2.89 15.87-2.89 20.11v115h119.87c60.29 0 130.32 8.89 178.05 48.08 43.88 36.09 58.66 88.66 58.66 142.91 0 51.48-14.21 100.62-53.3 136.85-40.18 37.29-94.47 49.28-148.52 49.28H187.4c-29.6 0-58.95-6.28-82.41-24.69-23.77-18.67-34.75-44.7-34.75-74.19v-411.52c0-30.34 10.27-57.82 33.38-78.56 22.15-19.97 50.06-28.29 79.87-28.29h276.79c14 0 27.09 4.58 37.57 13.61l.7.64.67.63c9.6 9.35 14.92 21.24 15.28 34.36zm568.71 383.05H869.36l-64.24 160.48c-5.65 14.11-15.53 25.5-28.72 32.31-13.19 7.16-28.01 8.4-42.97 3.78-14.18-4.73-25.05-14.29-31.71-27.31-7.62-14.89-6.78-31.01-.32-46.07l200.55-510.72c5.79-16.37 15.38-31.01 30.13-41.91 13.44-9.52 28.79-14.25 45.4-14.25 16.02 0 30.84 5.12 43.75 14.36 14.57 10.48 24.02 25.15 29.74 40.89l202.1 512.83.21.77c4.8 14.4 4.41 29.36-2.08 43.18-6.24 13.3-17.28 22.69-31.46 27.38-13.62 4.52-27.56 3.92-40.79-1.55l-1.62-.67-1.59-.88c-12.87-7.2-21.97-18.42-27.65-32.04l-64.88-160.58zm915.56 106.93c17.57 1.3 33.31 9.24 41.49 24.76 5.4 9.38 6.63 20.89 6.74 31.54l1.48 10.72 5.72 58.92c2.75 25.15-6.81 47.16-33.94 54.15-26.92 7.76-46.67-5.89-54.29-29.78-8.01-23-9.39-41.2-28.76-56.62-13.68-10.86-41.2-16.44-59.3-16.44h-335.49c-12.31 0-21.94 2.33-30.27 12.63-13.05 16.23-17.46 35.39-23.17 54.97l-.22.77-.28.74c-7.76 22.05-26.07 35.39-51.19 33.94-28.71-1.62-42.01-21.13-42.01-47.31l.03-1.13 3.32-81.24c.07-33.27 11.36-45.16 36.05-65.23 21.7-17.64 40.82-35.03 55.32-59.48 19.01-31.89 28.61-63.99 42.08-109.89 21.59-73.38 16.06-186.3 16.06-262.71 0-24.66 4.86-50.91 23.49-69.04 19.02-18.49 46.5-23.49 72.43-23.49h219.14c28.33 0 58.42 5.67 78.25 25.96 20 19.47 25.86 47.13 25.86 73.73v411.52c0 7.51 1.94 13.61 7.02 18.55 6.38 5.93 15.87 8.43 24.44 9.46zm355.85-436.64c-1.2 2.08-1.44 4.55-1.44 6.85v142.06h265.46c14.5 0 28.01 4.13 39.09 13.41l1.02.88.99.92c9.63 9.66 14.92 21.94 14.92 35.41 0 13.69-5.43 26.36-15.45 35.95-11.04 10.55-25.19 15.52-40.57 15.52h-265.46v155.16c0 1.62.07 3.63 1.23 4.97.92.56 3.67.64 4.66.64h289.7c14.5 0 28.33 4.26 39.26 13.65l.71.6.63.67c9.99 9.7 15.31 22.05 15.31 35.73 0 13.73-5.43 26.29-15.45 35.92-10.93 10.47-25.15 15.55-40.46 15.55h-298.73c-31.61 0-60.12-10.37-81.18-33.69-18.1-20-26.39-44.3-26.39-70.76v-406.79c0-26.67 8.22-51.22 26.29-71.44 20.95-23.53 49.63-33.79 81.28-33.79h297.07c14.32 0 27.8 4.33 38.59 13.61l.85.81.81.78c9.6 9.67 14.96 21.91 14.96 35.42 0 13.58-5.43 26.14-15.31 35.74-10.73 10.47-24.73 15.69-39.9 15.69h-288.04c-.89 0-3.43.11-4.45.53zm672.5 133.49h290.94v-192.75c0-15.17 4.97-29.5 16.12-40.36l.78-.78.88-.7c10.58-8.89 23.56-13.41 37.57-13.41 13.83 0 26.77 4.76 37.15 13.72 12.31 10.73 18.16 25.55 18.16 41.53v533.47c0 15.77-5.99 30.23-18.16 40.78-10.38 8.99-23.32 13.76-37.15 13.76-14.01 0-26.99-4.52-37.57-13.37l-.88-.74-.78-.78c-10.97-10.69-16.12-24.66-16.12-39.65v-238.62h-290.94v238.62c0 15.77-6.03 30.23-18.2 40.78-10.34 8.99-23.28 13.76-37.15 13.76-13.97 0-26.95-4.52-37.57-13.37l-.88-.74-.74-.78c-11.01-10.69-16.12-24.66-16.12-39.65v-533.47c0-15.17 4.97-29.5 16.12-40.36l.74-.78.88-.7c10.62-8.89 23.6-13.41 37.57-13.41 13.87 0 26.81 4.76 37.15 13.72 12.35 10.73 18.2 25.55 18.2 41.53v192.75zM180.95 1930.82v160.17c0 2.04.07 6.98 2.08 8.46l.99.78c4.62 3.74 18.37 4.34 23.91 4.34h110.18c27.83-.35 58.56-5.22 80.82-22.83 19.54-15.48 26.28-36.37 26.28-60.5 0-25.15-5.72-49.67-26.11-66.5-23.81-19.68-61.2-23.92-91.15-23.92h-127zm726.51-12.02h137.65l-68.33-180.66-69.32 180.66zm741.96-228.15c-.6 5.51-.6 12.39-.6 16.06 0 63 1.8 167.18-15.31 254-11.71 59.58-33.9 114.01-60.26 142.24h283.36v-412.26c-.68-.04-1.27-.04-1.73-.04h-205.46zm-566.21-462.91H869.36l-64.24 160.51c-5.65 14.11-15.53 25.51-28.72 32.32-13.19 7.16-28.01 8.39-42.97 3.77-14.18-4.73-25.05-14.29-31.71-27.3-7.62-14.89-6.78-31.01-.32-46.08l200.55-510.68c5.79-16.4 15.38-31.04 30.13-41.91 13.44-9.56 28.79-14.28 45.4-14.28 16.02 0 30.84 5.11 43.75 14.35 14.57 10.48 24.02 25.12 29.74 40.86l202.1 512.83.21.81c4.8 14.39 4.41 29.35-2.08 43.18-6.24 13.26-17.28 22.68-31.46 27.38-13.62 4.51-27.56 3.91-40.79-1.59l-1.62-.67-1.59-.85c-12.87-7.2-21.97-18.41-27.65-32.03l-64.88-160.62zm915.56 106.96c17.57 1.31 33.31 9.24 41.49 24.77 5.4 9.38 6.63 20.88 6.74 31.53l1.48 10.76 5.72 58.88c2.75 25.16-6.81 47.17-33.94 54.15-26.92 7.77-46.67-5.89-54.29-29.81-8.01-22.96-9.39-41.16-28.76-56.58-13.68-10.87-41.2-16.44-59.3-16.44h-335.49c-12.31 0-21.94 2.33-30.27 12.59-13.05 16.23-17.46 35.42-23.17 55l-.22.78-.28.77c-7.76 22.02-26.07 35.32-51.19 33.91-28.71-1.63-42.01-21.14-42.01-47.31l.03-1.13 3.32-81.25c.07-33.26 11.36-45.15 36.05-65.19 21.7-17.67 40.82-35.1 55.32-59.48 19.01-31.92 28.61-64.03 42.08-109.92 21.59-73.38 16.06-186.3 16.06-262.72 0-24.66 4.86-50.9 23.49-69.03 19.02-18.49 46.5-23.5 72.43-23.5h219.14c28.33 0 58.42 5.68 78.25 25.96 20 19.48 25.86 47.14 25.86 73.74v411.48c0 7.54 1.94 13.61 7.02 18.59 6.38 5.96 15.87 8.43 24.44 9.45zm355.85-436.6c-1.2 2.01-1.44 4.52-1.44 6.81v142.07h265.46c14.5 0 28.01 4.12 39.09 13.4l1.02.88.99.92c9.63 9.67 14.92 21.91 14.92 35.42 0 13.69-5.43 26.35-15.45 35.91-11.04 10.59-25.19 15.56-40.57 15.56h-265.46v155.15c0 1.62.07 3.63 1.23 4.98.92.52 3.67.63 4.66.63h289.7c14.5 0 28.33 4.27 39.26 13.65l.71.6.63.64c9.99 9.73 15.31 22.08 15.31 35.77 0 13.72-5.43 26.28-15.45 35.91-10.93 10.51-25.15 15.56-40.46 15.56h-298.73c-31.61 0-60.12-10.37-81.18-33.69-18.1-20-26.39-44.31-26.39-70.77V900.71c0-26.63 8.22-51.22 26.29-71.43 20.95-23.5 49.63-33.8 81.28-33.8h297.07c14.32 0 27.8 4.37 38.59 13.62l.85.77.81.81c9.6 9.67 14.96 21.91 14.96 35.42 0 13.59-5.43 26.14-15.31 35.74-10.73 10.48-24.73 15.73-39.9 15.73h-288.04c-.89 0-3.43.07-4.45.53zm672.5 133.42h290.94V838.8c0-15.17 4.97-29.49 16.12-40.36l.78-.77.88-.71c10.58-8.89 23.56-13.4 37.57-13.4 13.83 0 26.77 4.76 37.15 13.72 12.31 10.72 18.16 25.54 18.16 41.52v533.47c0 15.77-5.99 30.23-18.16 40.78-10.38 9-23.32 13.76-37.15 13.76-14.01 0-26.99-4.51-37.57-13.37l-.88-.74-.78-.78c-10.97-10.69-16.12-24.66-16.12-39.65v-238.62h-290.94v238.62c0 15.77-6.03 30.23-18.2 40.78-10.34 9-23.28 13.76-37.15 13.76-13.97 0-26.95-4.51-37.57-13.37l-.88-.74-.74-.78c-11.01-10.69-16.12-24.66-16.12-39.65V838.8c0-15.17 4.97-29.49 16.12-40.36l.74-.77.88-.71c10.62-8.89 23.6-13.4 37.57-13.4 13.87 0 26.81 4.76 37.15 13.72 12.35 10.72 18.2 25.54 18.2 41.52v192.72zM180.95 1137.71v160.16c0 2.05.07 6.95 2.08 8.47l.99.77c4.62 3.74 18.37 4.34 23.91 4.34h110.18c27.83-.35 58.56-5.22 80.82-22.82 19.54-15.49 26.28-36.41 26.28-60.5 0-25.16-5.72-49.71-26.11-66.54-23.81-19.65-61.2-23.88-91.15-23.88h-127zm726.51-12.03h137.65l-68.33-180.66-69.32 180.66zm741.96-228.11c-.6 5.47-.6 12.35-.6 15.98 0 63.05 1.8 167.22-15.31 254-11.71 59.59-33.9 114.06-60.26 142.28h283.36V897.61c-.68-.04-1.27-.04-1.73-.04h-205.46z"/><path d="M482.25 2707.02h-62.3c-2.58 0-2.93-9.2-2.93-18.41 0-8.86.35-18.06 2.93-18.06h173.21c1.48 0 2.97 9.2 2.97 18.06 0 9.21-1.49 18.41-2.97 18.41H530.9v144.82c0 1.48-12.88 2.22-24.34 2.22-13.3 0-24.31-.74-24.31-2.22v-144.82zm265.79 34.28c0-29.1-17.71-40.18-39.44-40.18-18.06 0-38.74 9.6-43.5 40.18h82.94zm47.84 91.41c-19.16 15.1-54.83 23.21-80.33 23.21-53.02 0-100.93-23.6-100.93-92.89 0-63.04 43.07-95.81 95.81-95.81 63.36 0 85.83 41.66 85.83 87.31v17.32H665.1c1.8 23.61 16.58 47.21 56.73 47.21 24.02 0 39.05-6.99 55.28-16.97l3.7-2.19c5.93 4.02 16.94 21.34 16.94 31.33l-1.87 1.48zm101.47-16.96c10.69 4.02 21.03 5.5 34.32 5.5 39.76 0 55.6-27.97 55.6-64.48 0-28.4-12.13-51.62-42.01-51.62-27.27 0-47.91 22.86-47.91 51.26v59.34zm-47.87-144.46c0-1.48 12.49-2.22 24.3-2.22 11.43 0 23.57.74 23.57 2.22v28.33h.39c12.1-20.61 32.07-32.39 62.62-32.39 52.35 0 76.65 38.31 76.65 88.8 0 53.09-34.29 99.87-103.15 99.87-11.43 0-24.37-1.84-35.77-4.8v89.18c0 1.48-11.75 2.22-23.95 2.22-12.17 0-24.66-.74-24.66-2.22v-268.99zm240.66.01c0-1.48 16.26-2.22 32.45-2.22 8.44 0 16.59.35 23.96.74 7.41.35 11.08 1.09 11.46 1.48l33.87 96.2c3.32 9.17 5.15 21.34 7.76 30.52h1.84c2.57-8.79 5.53-21.73 8.46-30.91l32.78-95.81c1.09-1.48 17.32-2.22 33.9-2.22 17.32 0 35.77.74 35.77 2.22v180.55c0 1.48-12.52 2.22-23.95 2.22-12.92 0-24.31-.74-24.31-2.22v-102.48c0-10.27 1.09-21.73 1.09-35.35h-1.87c-2.96 9.95-7.33 25.08-10.3 33.51l-36.48 104.32c-1.09 1.48-9.2 2.22-16.93 2.22-8.54 0-17-.74-18.1-2.22l-37.6-103.58c-2.93-8.43-6.99-23.95-9.95-34.25h-1.87c.39 12.88 1.87 25.08 1.87 35.35v102.48c0 1.48-10.69 2.22-22.05 2.22-10.37 0-21.8-.74-21.8-2.22V2671.3zm470.7 0c0-1.48 12.52-2.22 24.34-2.22 12.91 0 24.66.74 24.66 2.22v180.55c0 1.48-11.75 2.22-24.66 2.22-12.17 0-24.34-.74-24.34-2.22V2671.3zm-109.75 145.94c17.96 0 37.54-.74 37.54-25.82 0-21.34-19.58-23.57-35.39-23.57h-26.17v49.39h24.02zm-71.9-145.94c0-1.48 12.53-2.22 24.35-2.22 12.8 0 24.27.74 24.27 2.22v61.13h37.57c29.56 0 72.67 8.51 72.67 58.64 0 38.31-26.99 61.52-78.92 61.52h-79.94V2671.3zm430.94-76.67h172.09c2.57 0 2.96 9.98 2.96 19.9 0 9.24-.39 19.15-2.96 19.15h-121.25v67.45h95.81c1.87 0 2.22 10.34 2.22 20.29 0 9.91-.74 18.77-2.22 18.77h-95.81v73.37h127.17c2.58 0 3.32 9.92 3.32 19.9 0 9.17-.74 19.12-3.32 19.12h-178.01v-257.95zm258.76 112.39h-62.3c-2.58 0-2.96-9.2-2.96-18.41 0-8.86.38-18.06 2.96-18.06h173.25c1.48 0 2.93 9.2 2.93 18.06 0 9.21-1.45 18.41-2.93 18.41h-62.3v144.82c0 1.48-12.91 2.22-24.38 2.22-13.23 0-24.27-.74-24.27-2.22v-144.82zm153.75-35.72c0-1.48 12.49-2.22 24.31-2.22 12.95 0 24.34.74 24.34 2.22v70.38h21.73l58.63-70.38c1.84-1.48 12.53-2.22 25.37-2.22 14.04 0 29.14 0 29.14 2.22l-74.08 84.74 77.78 95.81c0 1.09-14.39 2.22-30.97 2.22-13.27 0-25.01-.74-26.49-2.22l-59.38-73.7h-21.73v73.7c0 1.48-11.39 2.22-24.34 2.22-12.17 0-24.31-.74-24.31-2.22V2671.3zm281.95 182.76l-82.13-182.77c0-1.48 12.18-2.22 26.92-2.22 13.58 0 26.53.74 27.62 2.22l41.63 101.32c5.54 12.91 6.67 25.43 8.12 33.19h1.87c1.48-7.41 2.96-18.45 6.94-29.88l39.48-104.63c1.09-1.84 11.4-2.22 24.27-2.22 13.65 0 26.21.74 26.21 2.22l-86.6 207.08c-17.36 41.27-42.02 65.97-80.4 65.97-11.75 0-26.81-2.93-35.7-8.5 0-12.1 4.05-26.85 10.33-33.87 6.28 3.32 14.36 6.28 21.7 6.28 16.62 0 29.17-4.41 43.88-39.48l5.86-14.71zm276.12-147.04h-52.35v11.79c0 40.18-1.13 129.71-80.68 138.57-7.37-4.41-11.46-17.32-11.46-28.75 0-3.32-.32-6.64.77-9.6 39.41-5.85 47.87-40.89 47.87-118.64v-29.84h144.5v181.29c0 1.48-12.2 2.22-24.34 2.22-12.88 0-24.31-.74-24.31-2.22v-144.82zm191.72 110.21c18.07 0 37.54-.74 37.54-25.79 0-21.37-19.47-23.6-35.35-23.6h-30.58v49.39h28.39zm-76.3-145.94c0-1.48 12.49-2.22 24.3-2.22 12.95 0 24.35.74 24.35 2.22v61.17h41.98c29.14 0 73.02 8.47 73.02 58.6 0 38.31-27.3 61.52-79.23 61.52h-84.42v-181.29z" fill-rule="nonzero"/></g></svg>