<svg viewBox="0 0 36.67 25.48">
                              <g>
                                 <path
                                    d="M.5,14.87V25h3a1.9,1.9,0,0,0,1.9-1.9v-.9H31.28v.9a1.9,1.9,0,0,0,1.9,1.9h3V14.87a5.28,5.28,0,0,0-5.28-5.28H5.78A5.28,5.28,0,0,0,.5,14.87Z"
                                 ></path>
                                 <line
                                    x1="3.3"
                                    y1="13.79"
                                    x2="33.37"
                                    y2="13.79"
                                 ></line>
                                 <path
                                    d="M3.65,7.49v-3A4,4,0,0,1,7.6.5H29.08A4,4,0,0,1,33,4.45v3"
                                 ></path>
                                 <path
                                    d="M10.21,5.4h4a2.19,2.19,0,0,1,2.19,2.19v2a0,0,0,0,1,0,0H8a0,0,0,0,1,0,0v-2A2.19,2.19,0,0,1,10.21,5.4Z"
                                 ></path>
                                 <path
                                    d="M22.75,5.4h4.11A2.14,2.14,0,0,1,29,7.54V9.59a0,0,0,0,1,0,0H20.61a0,0,0,0,1,0,0V7.54A2.14,2.14,0,0,1,22.75,5.4Z"
                                 ></path>
                              </g>
                           </svg>