<svg viewBox="0 0 39 27" xmlns="http://www.w3.org/2000/svg">
<path d="M31 2H4C2.89543 2 2 2.89543 2 4V19C2 20.1046 2.89543 21 4 21H31C32.1046 21 33 20.1046 33 19V4C33 2.89543 32.1046 2 31 2ZM4 0C1.79086 0 0 1.79086 0 4V19C0 21.2091 1.79086 23 4 23C4 25.2091 5.79086 27 8 27H35C37.2091 27 39 25.2091 39 23V21V19V17V15V8C39 5.79086 37.2091 4 35 4C35 1.79086 33.2091 0 31 0H4ZM8 25C6.89543 25 6 24.1046 6 23H31C32.4806 23 33.7733 22.1956 34.4649 21H37V23C37 24.1046 36.1046 25 35 25H8ZM37 19H35V17H37V19ZM37 15H35V6C36.1046 6 37 6.89543 37 8V15ZM21.5 11C22.8807 11 24 9.88071 24 8.5C24 7.11929 22.8807 6 21.5 6C20.1193 6 19 7.11929 19 8.5C19 9.88071 20.1193 11 21.5 11ZM21.5 13C22.4251 13 23.2849 12.7209 24 12.2422C24.715 12.7209 25.5749 13 26.5 13C28.9853 13 31 10.9853 31 8.5C31 6.01472 28.9853 4 26.5 4C25.5749 4 24.715 4.27914 24 4.75777C23.2849 4.27914 22.4251 4 21.5 4C19.0147 4 17 6.01472 17 8.5C17 10.9853 19.0147 13 21.5 13ZM26.5 11C26.1054 11 25.7322 10.9086 25.4004 10.7458C25.7818 10.0849 26 9.31792 26 8.5C26 7.68208 25.7818 6.91513 25.4004 6.25418C25.7322 6.0914 26.1054 6 26.5 6C27.8807 6 29 7.11929 29 8.5C29 9.88071 27.8807 11 26.5 11ZM6 6V11H11.1716L13 9.17157V6H6ZM5 4C4.44772 4 4 4.44772 4 5V12C4 12.5523 4.44772 13 5 13H11.1716C11.702 13 12.2107 12.7893 12.5858 12.4142L14.4142 10.5858C14.7893 10.2107 15 9.70201 15 9.17157V5C15 4.44772 14.5523 4 14 4H5ZM4.5 16C4.22386 16 4 16.2239 4 16.5V17.5C4 17.7761 4.22386 18 4.5 18H14.5C14.7761 18 15 17.7761 15 17.5V16.5C15 16.2239 14.7761 16 14.5 16H4.5ZM17 16.5C17 16.2239 17.2239 16 17.5 16H22.5C22.7761 16 23 16.2239 23 16.5V17.5C23 17.7761 22.7761 18 22.5 18H17.5C17.2239 18 17 17.7761 17 17.5V16.5ZM25.5 16C25.2239 16 25 16.2239 25 16.5V17.5C25 17.7761 25.2239 18 25.5 18H30.5C30.7761 18 31 17.7761 31 17.5V16.5C31 16.2239 30.7761 16 30.5 16H25.5Z"/>
</svg>
