<svg xmlns="http://www.w3.org/2000/svg" viewBox="0 0 3500 3000">
 <g>
  <path d="M514.5 844.73c0.88,12.94 -3.11,25.36 -11.86,35.21 -9.66,11.67 -23.74,17.63 -39.19,17.63l-258.69 0c-4.31,0 -17.04,0.29 -20.71,2.83l-0.25 0.24 0.04 -0.14c-2.4,3.71 -2.89,15.88 -2.89,20.11l0 115.01 119.87 0c60.29,0 130.32,8.89 178.05,48.08 43.88,36.09 58.66,88.65 58.66,142.91 0,51.47 -14.21,100.61 -53.3,136.84 -40.18,37.29 -94.47,49.32 -148.52,49.32l-148.31 0c-29.6,0 -58.95,-6.31 -82.41,-24.73 -23.77,-18.66 -34.75,-44.7 -34.75,-74.19l0 -411.51c0,-30.34 10.27,-57.82 33.38,-78.6 22.15,-19.97 50.06,-28.26 79.87,-28.26l276.79 0c14,0 27.09,4.59 37.57,13.62l0.7 0.63 0.67 0.64c9.6,9.35 14.92,21.2 15.28,34.36zm-146.58 -429.54c66.96,-1.8 112.53,-25.4 158.04,-49.01 50.87,-26.38 101.74,-52.77 180.2,-52.77 78.39,0 129.29,26.39 180.13,52.77 47.38,24.56 94.79,49.15 166.37,49.15 64.24,0 115.68,-24.87 166.93,-49.67 54.09,-26.07 107.95,-52.11 177.63,-52.11 69.95,-0.07 124.6,26.04 179.39,52.18 51.96,24.73 104.14,49.6 168.98,49.6 71.57,0 119.02,-24.59 166.37,-49.15 50.87,-26.38 101.77,-52.77 180.16,-52.77 78.39,0 129.33,26.39 180.16,52.77 47.38,24.56 94.83,49.15 166.37,49.15l0.21 0 0 -0.14c66.86,-1.84 112.36,-25.44 157.87,-49.01 50.84,-26.38 101.74,-52.77 180.17,-52.77 78.42,0 129.32,26.39 180.12,52.77 47.38,24.56 94.83,49.15 166.37,49.15l0.08 0 0 -67c-65.69,0 -109.75,-19.75 -166.45,-49.14 -50.8,-26.39 -101.7,-52.77 -180.12,-52.77 -78.43,0 -129.33,26.38 -180.17,52.77 -45.54,23.6 -91.08,47.2 -158.04,49l0 0.14 -0.04 0c-71.54,0 -118.99,-24.58 -166.37,-49.14 -50.83,-26.39 -101.77,-52.77 -180.16,-52.77 -78.39,0 -129.29,26.38 -180.16,52.77 -47.35,24.56 -94.8,49.14 -166.37,49.14 -64.84,0 -117.02,-24.87 -168.98,-49.6 -54.79,-26.17 -109.44,-52.24 -179.39,-52.17 -69.68,-0.04 -123.54,26 -177.63,52.1 -51.25,24.8 -102.69,49.67 -166.93,49.67 -71.58,0 -118.99,-24.58 -166.37,-49.14 -50.84,-26.39 -101.74,-52.77 -180.13,-52.77 -78.46,0 -129.33,26.38 -180.2,52.77 -45.51,23.6 -91.08,47.2 -158.04,49l0 67zm0 -223.24l0 67.03c66.96,-1.84 112.53,-25.44 158.04,-49.04 50.87,-26.39 101.74,-52.74 180.2,-52.74 78.39,0 129.29,26.35 180.13,52.74 47.38,24.55 94.79,49.14 166.37,49.14 64.24,0 115.68,-24.87 166.93,-49.63 54.09,-26.15 107.95,-52.11 177.63,-52.11 69.95,-0.07 124.6,25.96 179.39,52.14 51.96,24.73 104.14,49.6 168.98,49.6 71.57,0 119.02,-24.59 166.37,-49.14 50.87,-26.39 101.77,-52.74 180.16,-52.74 78.39,0 129.33,26.35 180.16,52.74 47.38,24.55 94.83,49.14 166.37,49.14l0.21 0 0 -0.1c66.86,-1.87 112.36,-25.47 157.87,-49.04 50.84,-26.39 101.74,-52.74 180.17,-52.74 78.42,0 129.32,26.35 180.12,52.74 47.38,24.55 94.83,49.14 166.37,49.14l0.08 0 0 -66.99c-65.69,0 -109.75,-19.79 -166.45,-49.14 -50.8,-26.39 -101.7,-52.78 -180.12,-52.78 -78.43,0 -129.33,26.39 -180.17,52.78 -45.54,23.6 -91.08,47.2 -158.04,49l0 0.14 -0.04 0c-71.54,0 -118.99,-24.59 -166.37,-49.14 -50.83,-26.39 -101.77,-52.78 -180.16,-52.78 -78.39,0 -129.29,26.39 -180.16,52.78 -47.35,24.55 -94.8,49.14 -166.37,49.14 -64.84,0 -117.02,-24.87 -168.98,-49.6 -54.79,-26.14 -109.44,-52.25 -179.39,-52.14 -69.68,-0.04 -123.54,26 -177.63,52.1 -51.25,24.77 -102.69,49.64 -166.93,49.64 -71.58,0 -118.99,-24.59 -166.37,-49.14 -50.84,-26.39 -101.74,-52.78 -180.13,-52.78 -78.46,0 -129.33,26.39 -180.2,52.78 -45.51,23.6 -91.08,47.2 -158.04,49zm146.58 1445.89c0.88,12.95 -3.11,25.37 -11.86,35.21 -9.66,11.71 -23.74,17.6 -39.19,17.6l-258.69 0c-4.31,0 -17.04,0.32 -20.71,2.86l-0.25 0.25 0.04 -0.14c-2.4,3.7 -2.89,15.87 -2.89,20.11l0 115 119.87 0c60.29,0 130.32,8.89 178.05,48.08 43.88,36.09 58.66,88.66 58.66,142.91 0,51.48 -14.21,100.62 -53.3,136.85 -40.18,37.29 -94.47,49.28 -148.52,49.28l-148.31 0c-29.6,0 -58.95,-6.28 -82.41,-24.69 -23.77,-18.67 -34.75,-44.7 -34.75,-74.19l0 -411.52c0,-30.34 10.27,-57.82 33.38,-78.56 22.15,-19.97 50.06,-28.29 79.87,-28.29l276.79 0c14,0 27.09,4.58 37.57,13.61l0.7 0.64 0.67 0.63c9.6,9.35 14.92,21.24 15.28,34.36zm568.71 383.05l-213.85 0 -64.24 160.48c-5.65,14.11 -15.53,25.5 -28.72,32.31 -13.19,7.16 -28.01,8.4 -42.97,3.78 -14.18,-4.73 -25.05,-14.29 -31.71,-27.31 -7.62,-14.89 -6.78,-31.01 -0.32,-46.07l200.55 -510.72c5.79,-16.37 15.38,-31.01 30.13,-41.91 13.44,-9.52 28.79,-14.25 45.4,-14.25 16.02,0 30.84,5.12 43.75,14.36 14.57,10.48 24.02,25.15 29.74,40.89l202.1 512.83 0.21 0.77c4.8,14.4 4.41,29.36 -2.08,43.18 -6.24,13.3 -17.28,22.69 -31.46,27.38 -13.62,4.52 -27.56,3.92 -40.79,-1.55l-1.62 -0.67 -1.59 -0.88c-12.87,-7.2 -21.97,-18.42 -27.65,-32.04l-64.88 -160.58zm915.56 106.93c17.57,1.3 33.31,9.24 41.49,24.76 5.4,9.38 6.63,20.89 6.74,31.54l1.48 10.72 5.72 58.92c2.75,25.15 -6.81,47.16 -33.94,54.15 -26.92,7.76 -46.67,-5.89 -54.29,-29.78 -8.01,-23 -9.39,-41.2 -28.76,-56.62 -13.68,-10.86 -41.2,-16.44 -59.3,-16.44l-335.49 0c-12.31,0 -21.94,2.33 -30.27,12.63 -13.05,16.23 -17.46,35.39 -23.17,54.97l-0.22 0.77 -0.28 0.74c-7.76,22.05 -26.07,35.39 -51.19,33.94 -28.71,-1.62 -42.01,-21.13 -42.01,-47.31l0.03 -1.13 3.32 -81.24c0.07,-33.27 11.36,-45.16 36.05,-65.23 21.7,-17.64 40.82,-35.03 55.32,-59.48 19.01,-31.89 28.61,-63.99 42.08,-109.89 21.59,-73.38 16.06,-186.3 16.06,-262.71 0,-24.66 4.86,-50.91 23.49,-69.04 19.02,-18.49 46.5,-23.49 72.43,-23.49l219.14 0c28.33,0 58.42,5.67 78.25,25.96 20,19.47 25.86,47.13 25.86,73.73l0 411.52c0,7.51 1.94,13.61 7.02,18.55 6.38,5.93 15.87,8.43 24.44,9.46zm355.85 -436.64c-1.2,2.08 -1.44,4.55 -1.44,6.85l0 142.06 265.46 0c14.5,0 28.01,4.13 39.09,13.41l1.02 0.88 0.99 0.92c9.63,9.66 14.92,21.94 14.92,35.41 0,13.69 -5.43,26.36 -15.45,35.95 -11.04,10.55 -25.19,15.52 -40.57,15.52l-265.46 0 0 155.16c0,1.62 0.07,3.63 1.23,4.97 0.92,0.56 3.67,0.64 4.66,0.64l289.7 0c14.5,0 28.33,4.26 39.26,13.65l0.71 0.6 0.63 0.67c9.99,9.7 15.31,22.05 15.31,35.73 0,13.73 -5.43,26.29 -15.45,35.92 -10.93,10.47 -25.15,15.55 -40.46,15.55l-298.73 0c-31.61,0 -60.12,-10.37 -81.18,-33.69 -18.1,-20 -26.39,-44.3 -26.39,-70.76l0 -406.79c0,-26.67 8.22,-51.22 26.29,-71.44 20.95,-23.53 49.63,-33.79 81.28,-33.79l297.07 0c14.32,0 27.8,4.33 38.59,13.61l0.85 0.81 0.81 0.78c9.6,9.67 14.96,21.91 14.96,35.42 0,13.58 -5.43,26.14 -15.31,35.74 -10.73,10.47 -24.73,15.69 -39.9,15.69l-288.04 0c-0.89,0 -3.43,0.11 -4.45,0.53zm672.5 133.49l290.94 0 0 -192.75c0,-15.17 4.97,-29.5 16.12,-40.36l0.78 -0.78 0.88 -0.7c10.58,-8.89 23.56,-13.41 37.57,-13.41 13.83,0 26.77,4.76 37.15,13.72 12.31,10.73 18.16,25.55 18.16,41.53l0 533.47c0,15.77 -5.99,30.23 -18.16,40.78 -10.38,8.99 -23.32,13.76 -37.15,13.76 -14.01,0 -26.99,-4.52 -37.57,-13.37l-0.88 -0.74 -0.78 -0.78c-10.97,-10.69 -16.12,-24.66 -16.12,-39.65l0 -238.62 -290.94 0 0 238.62c0,15.77 -6.03,30.23 -18.2,40.78 -10.34,8.99 -23.28,13.76 -37.15,13.76 -13.97,0 -26.95,-4.52 -37.57,-13.37l-0.88 -0.74 -0.74 -0.78c-11.01,-10.69 -16.12,-24.66 -16.12,-39.65l0 -533.47c0,-15.17 4.97,-29.5 16.12,-40.36l0.74 -0.78 0.88 -0.7c10.62,-8.89 23.6,-13.41 37.57,-13.41 13.87,0 26.81,4.76 37.15,13.72 12.35,10.73 18.2,25.55 18.2,41.53l0 192.75zm-2846.17 106.15l0 160.17c0,2.04 0.07,6.98 2.08,8.46l0.99 0.78c4.62,3.74 18.37,4.34 23.91,4.34l110.18 0c27.83,-0.35 58.56,-5.22 80.82,-22.83 19.54,-15.48 26.28,-36.37 26.28,-60.5 0,-25.15 -5.72,-49.67 -26.11,-66.5 -23.81,-19.68 -61.2,-23.92 -91.15,-23.92l-127 0zm726.51 -12.02l137.65 0 -68.33 -180.66 -69.32 180.66zm741.96 -228.15c-0.6,5.51 -0.6,12.39 -0.6,16.06 0,63 1.8,167.18 -15.31,254 -11.71,59.58 -33.9,114.01 -60.26,142.24l282.47 0 0.89 0 0 -412.08 0 -0.18c-0.68,-0.04 -1.27,-0.04 -1.73,-0.04l-205.14 0 -0.32 0zm-566.21 -462.91l-213.85 0 -64.24 160.51c-5.65,14.11 -15.53,25.51 -28.72,32.32 -13.19,7.16 -28.01,8.39 -42.97,3.77 -14.18,-4.73 -25.05,-14.29 -31.71,-27.3 -7.62,-14.89 -6.78,-31.01 -0.32,-46.08l200.55 -510.68c5.79,-16.4 15.38,-31.04 30.13,-41.91 13.44,-9.56 28.79,-14.28 45.4,-14.28 16.02,0 30.84,5.11 43.75,14.35 14.57,10.48 24.02,25.12 29.74,40.86l202.1 512.83 0.21 0.81c4.8,14.39 4.41,29.35 -2.08,43.18 -6.24,13.26 -17.28,22.68 -31.46,27.38 -13.62,4.51 -27.56,3.91 -40.79,-1.59l-1.62 -0.67 -1.59 -0.85c-12.87,-7.2 -21.97,-18.41 -27.65,-32.03l-64.88 -160.62zm915.56 106.96c17.57,1.31 33.31,9.24 41.49,24.77 5.4,9.38 6.63,20.88 6.74,31.53l1.48 10.76 5.72 58.88c2.75,25.16 -6.81,47.17 -33.94,54.15 -26.92,7.77 -46.67,-5.89 -54.29,-29.81 -8.01,-22.96 -9.39,-41.16 -28.76,-56.58 -13.68,-10.87 -41.2,-16.44 -59.3,-16.44l-335.49 0c-12.31,0 -21.94,2.33 -30.27,12.59 -13.05,16.23 -17.46,35.42 -23.17,55l-0.22 0.78 -0.28 0.77c-7.76,22.02 -26.07,35.32 -51.19,33.91 -28.71,-1.63 -42.01,-21.14 -42.01,-47.31l0.03 -1.13 3.32 -81.25c0.07,-33.26 11.36,-45.15 36.05,-65.19 21.7,-17.67 40.82,-35.1 55.32,-59.48 19.01,-31.92 28.61,-64.03 42.08,-109.92 21.59,-73.38 16.06,-186.3 16.06,-262.72 0,-24.66 4.86,-50.9 23.49,-69.03 19.02,-18.49 46.5,-23.5 72.43,-23.5l219.14 0c28.33,0 58.42,5.68 78.25,25.96 20,19.48 25.86,47.14 25.86,73.74l0 411.48c0,7.54 1.94,13.61 7.02,18.59 6.38,5.96 15.87,8.43 24.44,9.45zm355.85 -436.6c-1.2,2.01 -1.44,4.52 -1.44,6.81l0 142.07 265.46 0c14.5,0 28.01,4.12 39.09,13.4l1.02 0.88 0.99 0.92c9.63,9.67 14.92,21.91 14.92,35.42 0,13.69 -5.43,26.35 -15.45,35.91 -11.04,10.59 -25.19,15.56 -40.57,15.56l-265.46 0 0 155.15c0,1.62 0.07,3.63 1.23,4.98 0.92,0.52 3.67,0.63 4.66,0.63l289.7 0c14.5,0 28.33,4.27 39.26,13.65l0.71 0.6 0.63 0.64c9.99,9.73 15.31,22.08 15.31,35.77 0,13.72 -5.43,26.28 -15.45,35.91 -10.93,10.51 -25.15,15.56 -40.46,15.56l-298.73 0c-31.61,0 -60.12,-10.37 -81.18,-33.69 -18.1,-20 -26.39,-44.31 -26.39,-70.77l0 -406.79c0,-26.63 8.22,-51.22 26.29,-71.43 20.95,-23.5 49.63,-33.8 81.28,-33.8l297.07 0c14.32,0 27.8,4.37 38.59,13.62l0.85 0.77 0.81 0.81c9.6,9.67 14.96,21.91 14.96,35.42 0,13.59 -5.43,26.14 -15.31,35.74 -10.73,10.48 -24.73,15.73 -39.9,15.73l-288.04 0c-0.89,0 -3.43,0.07 -4.45,0.53zm672.5 133.42l290.94 0 0 -192.72c0,-15.17 4.97,-29.49 16.12,-40.36l0.78 -0.77 0.88 -0.71c10.58,-8.89 23.56,-13.4 37.57,-13.4 13.83,0 26.77,4.76 37.15,13.72 12.31,10.72 18.16,25.54 18.16,41.52l0 533.47c0,15.77 -5.99,30.23 -18.16,40.78 -10.38,9 -23.32,13.76 -37.15,13.76 -14.01,0 -26.99,-4.51 -37.57,-13.37l-0.88 -0.74 -0.78 -0.78c-10.97,-10.69 -16.12,-24.66 -16.12,-39.65l0 -238.62 -290.94 0 0 238.62c0,15.77 -6.03,30.23 -18.2,40.78 -10.34,9 -23.28,13.76 -37.15,13.76 -13.97,0 -26.95,-4.51 -37.57,-13.37l-0.88 -0.74 -0.74 -0.78c-11.01,-10.69 -16.12,-24.66 -16.12,-39.65l0 -533.47c0,-15.17 4.97,-29.49 16.12,-40.36l0.74 -0.77 0.88 -0.71c10.62,-8.89 23.6,-13.4 37.57,-13.4 13.87,0 26.81,4.76 37.15,13.72 12.35,10.72 18.2,25.54 18.2,41.52l0 192.72zm-2846.17 106.19l0 160.16c0,2.05 0.07,6.95 2.08,8.47l0.99 0.77c4.62,3.74 18.37,4.34 23.91,4.34l110.18 0c27.83,-0.35 58.56,-5.22 80.82,-22.82 19.54,-15.49 26.28,-36.41 26.28,-60.5 0,-25.16 -5.72,-49.71 -26.11,-66.54 -23.81,-19.65 -61.2,-23.88 -91.15,-23.88l-127 0zm726.51 -12.03l137.65 0 -68.33 -180.66 -69.32 180.66zm741.96 -228.11c-0.6,5.47 -0.6,12.35 -0.6,15.98 0,63.05 1.8,167.22 -15.31,254 -11.71,59.59 -33.9,114.06 -60.26,142.28l282.47 0 0.89 0 0 -412.08 0 -0.14c-0.68,-0.04 -1.27,-0.04 -1.73,-0.04l-205.14 0 -0.32 0z"/>
  <path d="M482.25 2707.02l-62.3 0c-2.58,0 -2.93,-9.2 -2.93,-18.41 0,-8.86 0.35,-18.06 2.93,-18.06l173.21 0c1.48,0 2.97,9.2 2.97,18.06 0,9.21 -1.49,18.41 -2.97,18.41l-62.26 0 0 144.82c0,1.48 -12.88,2.22 -24.34,2.22 -13.3,0 -24.31,-0.74 -24.31,-2.22l0 -144.82z"/>
  <path d="M748.04 2741.3c0,-29.1 -17.71,-40.18 -39.44,-40.18 -18.06,0 -38.74,9.6 -43.5,40.18l82.94 0zm47.84 91.41c-19.16,15.1 -54.83,23.21 -80.33,23.21 -53.02,0 -100.93,-23.6 -100.93,-92.89 0,-63.04 43.07,-95.81 95.81,-95.81 63.36,0 85.83,41.66 85.83,87.31l0 17.32 -131.16 0c1.8,23.61 16.58,47.21 56.73,47.21 24.02,0 39.05,-6.99 55.28,-16.97l3.7 -2.19c5.93,4.02 16.94,21.34 16.94,31.33l-1.87 1.48z"/>
  <path d="M897.35 2815.75c10.69,4.02 21.03,5.5 34.32,5.5 39.76,0 55.6,-27.97 55.6,-64.48 0,-28.4 -12.13,-51.62 -42.01,-51.62 -27.27,0 -47.91,22.86 -47.91,51.26l0 59.34zm-47.87 -144.46c0,-1.48 12.49,-2.22 24.3,-2.22 11.43,0 23.57,0.74 23.57,2.22l0 28.33 0.39 0c12.1,-20.61 32.07,-32.39 62.62,-32.39 52.35,0 76.65,38.31 76.65,88.8 0,53.09 -34.29,99.87 -103.15,99.87 -11.43,0 -24.37,-1.84 -35.77,-4.8l0 89.18c0,1.48 -11.75,2.22 -23.95,2.22 -12.17,0 -24.66,-0.74 -24.66,-2.22l0 -268.99z"/>
  <path d="M1090.14 2671.3c0,-1.48 16.26,-2.22 32.45,-2.22 8.44,0 16.59,0.35 23.96,0.74 7.41,0.35 11.08,1.09 11.46,1.48l33.87 96.2c3.32,9.17 5.15,21.34 7.76,30.52l1.84 0c2.57,-8.79 5.53,-21.73 8.46,-30.91l32.78 -95.81c1.09,-1.48 17.32,-2.22 33.9,-2.22 17.32,0 35.77,0.74 35.77,2.22l0 180.55c0,1.48 -12.52,2.22 -23.95,2.22 -12.92,0 -24.31,-0.74 -24.31,-2.22l0 -102.48c0,-10.27 1.09,-21.73 1.09,-35.35l-1.87 0c-2.96,9.95 -7.33,25.08 -10.3,33.51l-36.48 104.32c-1.09,1.48 -9.2,2.22 -16.93,2.22 -8.54,0 -17,-0.74 -18.1,-2.22l-37.6 -103.58c-2.93,-8.43 -6.99,-23.95 -9.95,-34.25l-1.87 0c0.39,12.88 1.87,25.08 1.87,35.35l0 102.48c0,1.48 -10.69,2.22 -22.05,2.22 -10.37,0 -21.8,-0.74 -21.8,-2.22l0 -180.55z"/>
  <path d="M1560.84 2671.3c0,-1.48 12.52,-2.22 24.34,-2.22 12.91,0 24.66,0.74 24.66,2.22l0 180.55c0,1.48 -11.75,2.22 -24.66,2.22 -12.17,0 -24.34,-0.74 -24.34,-2.22l0 -180.55zm-109.75 145.94c17.96,0 37.54,-0.74 37.54,-25.82 0,-21.34 -19.58,-23.57 -35.39,-23.57l-26.17 0 0 49.39 24.02 0zm-71.9 -145.94c0,-1.48 12.53,-2.22 24.35,-2.22 12.8,0 24.27,0.74 24.27,2.22l0 61.13 37.57 0c29.56,0 72.67,8.51 72.67,58.64 0,38.31 -26.99,61.52 -78.92,61.52l-79.94 0 0 -181.29z"/>
  <path d="M1810.13 2594.63l172.09 0c2.57,0 2.96,9.98 2.96,19.9 0,9.24 -0.39,19.15 -2.96,19.15l-121.25 0 0 67.45 95.81 0c1.87,0 2.22,10.34 2.22,20.29 0,9.91 -0.74,18.77 -2.22,18.77l-95.81 0 0 73.37 127.17 0c2.58,0 3.32,9.92 3.32,19.9 0,9.17 -0.74,19.12 -3.32,19.12l-178.01 0 0 -257.95z"/>
  <path d="M2068.89 2707.02l-62.3 0c-2.58,0 -2.96,-9.2 -2.96,-18.41 0,-8.86 0.38,-18.06 2.96,-18.06l173.25 0c1.48,0 2.93,9.2 2.93,18.06 0,9.21 -1.45,18.41 -2.93,18.41l-62.3 0 0 144.82c0,1.48 -12.91,2.22 -24.38,2.22 -13.23,0 -24.27,-0.74 -24.27,-2.22l0 -144.82z"/>
  <path d="M2222.64 2671.3c0,-1.48 12.49,-2.22 24.31,-2.22 12.95,0 24.34,0.74 24.34,2.22l0 70.38 21.73 0 58.63 -70.38c1.84,-1.48 12.53,-2.22 25.37,-2.22 14.04,0 29.14,0 29.14,2.22l-74.08 84.74 77.78 95.81c0,1.09 -14.39,2.22 -30.97,2.22 -13.27,0 -25.01,-0.74 -26.49,-2.22l-59.38 -73.7 -21.73 0 0 73.7c0,1.48 -11.39,2.22 -24.34,2.22 -12.17,0 -24.31,-0.74 -24.31,-2.22l0 -180.55z"/>
  <path d="M2504.59 2854.06l-82.13 -182.77c0,-1.48 12.18,-2.22 26.92,-2.22 13.58,0 26.53,0.74 27.62,2.22l41.63 101.32c5.54,12.91 6.67,25.43 8.12,33.19l1.87 0c1.48,-7.41 2.96,-18.45 6.94,-29.88l39.48 -104.63c1.09,-1.84 11.4,-2.22 24.27,-2.22 13.65,0 26.21,0.74 26.21,2.22l-86.6 207.08c-17.36,41.27 -42.02,65.97 -80.4,65.97 -11.75,0 -26.81,-2.93 -35.7,-8.5 0,-12.1 4.05,-26.85 10.33,-33.87 6.28,3.32 14.36,6.28 21.7,6.28 16.62,0 29.17,-4.41 43.88,-39.48l5.86 -14.71z"/>
  <path d="M2780.71 2707.02l-52.35 0 0 11.79c0,40.18 -1.13,129.71 -80.68,138.57 -7.37,-4.41 -11.46,-17.32 -11.46,-28.75 0,-3.32 -0.32,-6.64 0.77,-9.6 39.41,-5.85 47.87,-40.89 47.87,-118.64l0 -29.84 144.5 0 0 181.29c0,1.48 -12.2,2.22 -24.34,2.22 -12.88,0 -24.31,-0.74 -24.31,-2.22l0 -144.82z"/>
  <path d="M2972.43 2817.23c18.07,0 37.54,-0.74 37.54,-25.79 0,-21.37 -19.47,-23.6 -35.35,-23.6l-30.58 0 0 49.39 28.39 0zm-76.3 -145.94c0,-1.48 12.49,-2.22 24.3,-2.22 12.95,0 24.35,0.74 24.35,2.22l0 61.17 41.98 0c29.14,0 73.02,8.47 73.02,58.6 0,38.31 -27.3,61.52 -79.23,61.52l-84.42 0 0 -181.29z"/>
 </g>
</svg>
