<svg viewBox="0 0 61.06 54.96">
                <g>
                  <path d="M37.29,44.3V17.48A16.53,16.53,0,0,0,20.81,1h0A16.53,16.53,0,0,0,4.32,17.48V44.3"></path>
                  <path d="M34.15,44.3V18.47A13.39,13.39,0,0,0,20.81,5.12h0A13.39,13.39,0,0,0,7.46,18.47V44.3"></path>
                  <path d="M27.16,18.28V15.66A6.37,6.37,0,0,0,20.81,9.3h0a6.37,6.37,0,0,0-6.35,6.35v2.62"></path>
                  <rect y="44.3" width="39.61" height="4.67" rx="2.24" ry="2.24"></rect>
                  <line x1="20.81" y1="5.12" x2="20.81" y2="44.3"></line>
                  <line x1="34.15" y1="21.6" x2="29.45" y2="26.31"></line>
                  <line x1="12.16" y1="21.6" x2="7.46" y2="26.31"></line>
                  <line x1="16.87" y1="39.59" x2="12.16" y2="44.3"></line>
                  <line x1="30.48" y1="31.28" x2="25.77" y2="35.98"></line>
                  <line x1="7.46" y1="31.28" x2="34.15" y2="31.28"></line>
                  <line x1="7.46" y1="18.28" x2="34.15" y2="18.28"></line>
                </g>
              </svg>